<svg version="1" xmlns="http://www.w3.org/2000/svg" width="828" height="828" viewBox="0 0 621.000000 621.000000"><path d="M165.5 60.6c-8.8.6-25.9 3.3-34.7 5.5-29.3 7.4-54.8 22.2-75.4 44-19.5 20.6-32.5 41-44.2 69.1-8.2 19.6-11 40.5-9.3 68.9 1.5 25.4 6.2 45.5 16.6 71.1C33 354.5 59.4 393.4 91.7 427c36.1 37.5 77.3 70.1 138.3 109.2 11.6 7.4 43.2 25.8 58.6 34.1 20.7 11.2 21.8 11.3 34.3 2.9 4.7-3.3 13.6-8.7 19.6-12.1 6.1-3.5 11.7-6.7 12.5-7.1 1.8-1.1 27.2-16.5 43.2-26.3 6.4-4 12.2-7.7 12.8-8.3.8-.8-15.1-17-56-57.4l-57.1-56.3-10.7 4.7c-13.3 5.7-21.7 7.6-35.2 7.6-12.3 0-20.6-1.8-29.3-6.1-10.3-5.2-13.4-7.8-35.2-30-11.5-11.8-31.2-31.7-43.7-44.4-19.5-19.8-22.8-23.6-23.8-27.4-1.4-5.2-.7-8.5 2.6-12.8 3-4 8.8-5.8 13.9-4.4 2.7.7 13.8 11.1 48.5 45.3 50.9 50.2 49.2 48.9 64.5 49.6 7.2.3 10.8 0 17.3-1.8 4.5-1.2 8.5-2.7 8.8-3.2.3-.5-24.2-25.8-54.4-56.1-30.3-30.4-55.6-56.5-56.1-58-2.2-5.7-1.4-10.4 2.5-14.6 1.9-2.2 5.1-4.5 7-5.1 7.5-2.5 8-2 59.6 50.8 26.2 26.8 51.3 52.2 55.6 56.6l8 7.9 2-3.9c3.4-6.7 4.6-15.1 3.3-24.3-.6-4.5-1.7-9.4-2.5-10.9-3.2-6.2-23.7-28.7-63.3-69.6-14.5-14.9-27-28.6-27.9-30.4-3.2-6.7 1.8-16.6 9.8-19.7 7.7-2.9 9.5-1.6 37.8 27.2 40.1 40.8 63.3 66.5 67.5 74.8 5.5 11 7 18.1 7 33 0 14.6-1.6 21.4-8.2 35.7l-3.6 7.7 14.1 14.8c13.6 14.3 89.3 89.8 99.9 99.6l5.1 4.8 8.4-5.9c31.9-22.3 70.7-56.6 94.7-83.7 41.5-46.9 66-92.8 74.6-140.2 2.3-12.3 3-37.4 1.6-50.3-4-34.9-17.4-69-38.2-97-17-23-47.5-45.6-74.3-54.9-19.6-6.9-54.2-10.9-77.7-9.1-29.4 2.2-55.7 11.6-78.3 27.9-9.8 7.1-28.3 26-34.6 35.4-2.5 3.6-4.7 6.6-5 6.7-.3 0-2.7-3.2-5.5-7.2-11-15.7-28.9-32.1-45.8-42-13.6-7.9-35.6-15.8-55.6-19.7-9.9-2-27-3.1-37.6-2.5z"/></svg>