<?xml version="1.0" encoding="UTF-8"?>
<svg width="56px" height="70px" viewBox="0 0 56 70" version="1.1" xmlns="http://www.w3.org/2000/svg" xmlns:xlink="http://www.w3.org/1999/xlink">
    <!-- Generator: Sketch 46.2 (44496) - http://www.bohemiancoding.com/sketch -->
    <title>404 egg</title>
    <desc>Created with Sketch.</desc>
    <defs>
        <polygon id="path-1" points="0.008203125 70 0.008203125 0 55.4825195 0 55.4825195 70"></polygon>
    </defs>
    <g id="Desktop" stroke="none" stroke-width="1" fill="none" fill-rule="evenodd">
        <g id="404" transform="translate(-693.000000, -270.000000)">
            <g id="Group-2" transform="translate(533.000000, 203.000000)">
                <g id="404" transform="translate(86.000000, 0.000000)">
                    <g id="Group" transform="translate(20.000000, 51.000000)">
                        <g id="404-egg" transform="translate(54.246094, 16.000000)">
                            <g id="Group-4">
                                <mask id="mask-2" fill="white">
                                    <use xlink:href="#path-1"></use>
                                </mask>
                                <g id="Clip-2"></g>
                                <path d="M55.4825195,40.5742969 C55.4825195,59.6896289 43.0616211,70 27.7421484,70 C12.4208984,70 0,59.6896289 0,40.5742969 C0,34.9049805 1.09238281,29.031543 3.02832031,23.5712695 C7.62083984,10.6197656 16.9632422,0 27.7421484,0 C38.8355078,0 48.4095117,11.2523633 52.846582,24.7190234 C54.5369727,29.8491211 55.4825195,35.3007812 55.4825195,40.5742969" id="Fill-1" fill="#F4F4F1" mask="url(#mask-2)"></path>
                                <path d="M27.7411914,0.00068359375 C17.3496094,0.00068359375 8.92677734,21.4597852 8.92677734,40.5749805 C8.92677734,59.5399219 17.2182227,69.8382617 27.4975586,69.9989063 C12.290332,69.8900781 0.0008203125,59.586543 0.0008203125,40.5749805 C0.0008203125,21.4597852 12.4217188,0.00068359375 27.7411914,0.00068359375" id="Fill-3" fill="#E5E5E0" mask="url(#mask-2)"></path>
                            </g>
                            <path d="M52.846582,24.7190234 C39.509668,25.1840039 47.1667383,46.5013281 35.8832031,46.5013281 C24.4770312,46.5013281 29.9199414,29.1301172 23.6992383,27.83375 C17.4766211,26.5390234 16.1802539,33.03125 10.2067383,33.03125 C9.909375,33.03125 9.62417969,33.0122461 9.34759766,32.9742383 C4.90191406,32.3830664 2.98675781,27.2875586 2.48554687,25.6644336 C2.69992187,24.9714062 2.87970703,24.2730469 3.02832031,23.5712695 C7.51365234,10.9239648 16.527793,0.499570312 26.9867773,0.0172265625 C27.0195898,0.0155859375 27.0524023,0.0138085937 27.0853516,0.0138085937 C27.1699805,0.010390625 27.2529688,0.00697265625 27.335957,0.0051953125 C27.4707617,0.00177734375 27.6037891,0 27.7351758,0 L27.7421484,0 C38.8355078,0 48.4095117,11.2523633 52.846582,24.7190234" id="Fill-5" fill="#E73D57"></path>
                            <path d="M14.8036328,37.540918 C17.0469141,37.540918 18.8655469,39.9399219 18.8655469,42.8991992 C18.8655469,45.8584766 17.0469141,48.2574805 14.8036328,48.2574805 C12.5602148,48.2574805 10.7417188,45.8584766 10.7417188,42.8991992 C10.7417188,39.9399219 12.5602148,37.540918 14.8036328,37.540918" id="Fill-6" fill="#E26258"></path>
                            <path d="M27.7351758,0 C18.7107813,0.00697265625 11.1729297,16.1958398 9.34759766,32.9742383 C4.90191406,32.3830664 2.98675781,27.2875586 2.48554687,25.6644336 C2.69992187,24.9714063 2.87970703,24.2730469 3.02832031,23.5712695 C7.51365234,10.9239648 16.527793,0.499570312 26.9867773,0.0172265625 C27.0195898,0.0155859375 27.0524023,0.0138085937 27.0853516,0.0138085937 C27.1699805,0.010390625 27.2529688,0.00697265625 27.335957,0.0051953125 C27.4707617,0.00177734375 27.6037891,0 27.7351758,0" id="Fill-7" fill="#C70039"></path>
                        </g>
                    </g>
                </g>
            </g>
        </g>
    </g>
</svg>