<?xml version="1.0" encoding="UTF-8"?>
<svg width="29px" height="21px" viewBox="0 0 29 21" version="1.1" xmlns="http://www.w3.org/2000/svg" xmlns:xlink="http://www.w3.org/1999/xlink">
    <!-- Generator: Sketch 46.2 (44496) - http://www.bohemiancoding.com/sketch -->
    <title>Donate</title>
    <desc>Created with Sketch.</desc>
    <defs></defs>
    <g id="Desktop" stroke="none" stroke-width="1" fill="none" fill-rule="evenodd">
        <g id="Impact" transform="translate(-890.000000, -822.000000)" fill="#E73D57">
            <g id="How-does-it-work" transform="translate(330.000000, 732.000000)">
                <g id="Donate" transform="translate(560.000000, 90.000000)">
                    <g id="donate">
                        <g id="Donate" transform="translate(0.166667, 0.966480)">
                            <path d="M13.9550415,6.08772471 L13.9550415,17.7792115 L23.1408353,16.0128829 L23.1408353,10.3163359 C23.1408353,10.0778788 23.3458915,9.89275214 23.5796915,9.91979412 L24.7096665,10.0971185 C24.9085978,10.1201264 25.0586603,10.2907125 25.0586603,10.493483 L25.0586603,17.1112747 C25.0586603,17.2993716 24.9291165,17.4619781 24.7475978,17.5014327 L14.6919228,19.6923646 C14.206079,19.798183 13.703654,19.7993799 13.2172415,19.6956451 L3.2694103,17.575377 C3.0909978,17.5372966 2.96145405,17.3800542 2.9568603,17.1951048 L2.7849228,10.4742876 C2.77962905,10.2635375 2.93686655,10.0847945 3.14415405,10.0664414 L11.5942478,9.3140539 C11.740679,9.30106488 11.8678603,9.20632931 11.923904,9.0685039 L13.1969415,5.93589067 C13.3611353,5.53154666 13.9550415,5.65066434 13.9550415,6.08772471 Z M2.68941655,2.25986676 L0.0377290486,8.00313878 C-0.0918147014,8.28384334 0.129866549,8.60041176 0.434060299,8.56942432 L10.392479,7.5498089 C10.5331353,7.53526829 10.655504,7.44554214 10.712729,7.31463238 L13.9170665,-3.55271368e-14 L2.9749728,2.03648232 C2.84971655,2.05984481 2.74340405,2.14296563 2.68941655,2.25986676 Z M13.9170665,-3.55271368e-14 L17.3075603,7.54320356 C17.3668415,7.67499994 17.4919228,7.7640168 17.6344603,7.77563155 L27.5739353,8.58551651 C27.8734915,8.60994295 28.088654,8.29909324 27.9639228,8.02220115 L25.3717353,2.26385656 C25.318054,2.14469455 25.2102103,2.05984481 25.0830728,2.03665964 L13.9170665,-3.55271368e-14 Z" id="Fill-1"></path>
                        </g>
                    </g>
                </g>
            </g>
        </g>
    </g>
</svg>