<?xml version="1.0" encoding="UTF-8"?>
<svg width="22px" height="23px" viewBox="0 0 22 23" version="1.1" xmlns="http://www.w3.org/2000/svg" xmlns:xlink="http://www.w3.org/1999/xlink">
    <!-- Generator: Sketch 46.2 (44496) - http://www.bohemiancoding.com/sketch -->
    <title>Fee</title>
    <desc>Created with Sketch.</desc>
    <defs></defs>
    <g id="Desktop" stroke="none" stroke-width="1" fill="none" fill-rule="evenodd">
        <g id="Impact" transform="translate(-610.000000, -822.000000)" fill="#E73D57">
            <g id="How-does-it-work" transform="translate(330.000000, 732.000000)">
                <g id="Book-or-deliver" transform="translate(280.000000, 90.000000)">
                    <g id="Fee">
                        <g id="coins">
                            <path d="M5.36543422,2.77770358 L5.98649204,3.0477581 C5.55560824,3.31059742 5.36137067,3.56739953 5.41042877,3.81249535 C5.46096453,4.06524812 5.69303003,4.28325014 6.10078855,4.46068509 C6.47626034,4.62405776 6.91844818,4.71233349 7.45321103,4.7310341 C7.98051173,4.74914572 8.79403394,4.60130781 9.87168673,4.29134883 C10.1395115,4.21426402 10.3493383,4.16905861 10.4951088,4.15816219 C10.637924,4.14697127 10.7528116,4.1627269 10.8572817,4.20852132 C10.9294651,4.23951721 11.1485272,4.33471364 10.5975841,4.57458213 C10.2396964,4.73044511 9.86880531,4.79435114 9.49621494,4.76526947 C9.20097975,4.74229864 8.90227207,4.79663349 8.73285908,4.90390433 L8.40156913,5.11380766 C8.25698073,5.20554374 8.22750154,5.32260663 8.32303184,5.42590174 C8.41826662,5.52882874 8.62639413,5.60422018 8.87633925,5.62660202 C9.69422053,5.69963748 10.5014627,5.60591355 11.2769353,5.34911143 L12.1152821,5.71377338 C12.4131771,5.84320518 12.8960004,5.84320518 13.1938215,5.71406788 C13.4913471,5.58434158 13.4913471,5.37436462 13.1938215,5.24471195 L12.3262911,4.8673866 C12.7072302,4.62604562 12.9078216,4.38220142 12.9217116,4.14115494 C12.9387046,3.85902601 12.7098161,3.61260495 12.2419909,3.40895969 C11.9084106,3.26369864 11.5273976,3.17402405 11.1109948,3.14207103 C10.6945182,3.10989714 10.2996891,3.12771426 9.93840279,3.19530151 C9.58169721,3.26200527 9.03910279,3.39688528 8.32857304,3.5950087 C8.01944791,3.6804867 7.80962109,3.7238515 7.70455992,3.7244405 C7.60415335,3.7250295 7.51409036,3.70920024 7.44427123,3.67871971 C7.19691201,3.57144887 7.40474399,3.4354645 7.62291955,3.34048895 C7.8936257,3.22291069 8.18250698,3.16739784 8.48121466,3.17512841 C8.78080894,3.18293261 9.06333631,3.11335749 9.20216187,2.99769347 L9.39433073,2.83807564 C9.51586774,2.73713651 9.5092183,2.6160979 9.37733771,2.51744112 C9.24545712,2.41907884 9.00644665,2.3569398 8.74438478,2.35289046 C8.17585754,2.34486539 7.62750028,2.42047771 7.07596606,2.58355589 L6.4439736,2.30864216 C6.14585698,2.17891586 5.66325531,2.17891586 5.36543422,2.30864216 C5.06790866,2.43807395 5.06790866,2.64797729 5.36543422,2.77770358 Z" id="Fill-1"></path>
                            <path d="M18.4830827,6.12820546 C18.5336184,5.9188175 18.5592557,5.70596919 18.5592557,5.49002865 L18.5592557,4.80752991 C18.5592557,3.44378406 17.537606,2.19673298 15.6821902,1.29630585 C13.9621275,0.461404484 11.6884619,0.00184061147 9.27981257,0.00184061147 C6.87108939,0.00184061147 4.59720209,0.461404484 2.8770655,1.29630585 C1.02164972,2.19673298 0,3.44378406 0,4.80752991 L0,5.49002865 C0,6.83477939 0.994239246,8.06570672 2.80089246,8.96333612 C2.75065223,9.17125159 2.7183655,9.43063056 2.7183655,9.59834708 L2.7183655,9.72284604 C0.963651816,10.6164261 0,11.8306407 0,13.1547029 L0,13.8374962 C0,14.7569184 0.465239246,15.6231838 1.33683324,16.3662755 C1.21876872,16.6803574 1.15729832,17.0041578 1.15729832,17.3354678 L1.15729832,18.0179666 C1.15729832,19.3817124 2.17924358,20.6287635 4.03436383,21.5291906 C5.75450042,22.3637975 8.02838771,22.8236559 10.4371109,22.8236559 C12.8457602,22.8236559 15.1194258,22.3637975 16.8394885,21.5291906 C18.6949043,20.6287635 19.7165541,19.3817124 19.7165541,18.0179666 L19.7165541,17.3354678 C19.7165541,16.4160456 19.2519059,15.5497802 18.3806074,14.806983 C18.4983764,14.4929011 18.5592557,14.1685117 18.5592557,13.8374962 L18.5592557,13.7129236 C20.3139694,12.8191227 21.2776212,11.605129 21.2776212,10.2807722 L21.2776212,9.59805258 C21.2776212,8.25492158 20.2856723,7.02517224 18.4830827,6.12820546 Z M1.29701047,4.22979879 C1.56564791,3.54899341 2.29760363,2.88784577 3.3945398,2.35554094 C4.95678911,1.59742988 7.04685628,1.17983195 9.27981257,1.17983195 C11.512695,1.17983195 13.6024666,1.59742988 15.1647159,2.35554094 C16.261726,2.88784577 16.9936078,3.54899341 17.2625408,4.22979879 C16.3130744,5.87567356 13.0140649,7.07553137 9.27951704,7.07553137 C5.54496913,7.07553137 2.24618128,5.87567356 1.29701047,4.22979879 Z M1.29701047,12.5771927 C1.51548156,12.0236104 2.04160014,11.4835013 2.81995419,11.0147344 C3.11984399,12.0883263 4.07913673,13.0557517 5.59543101,13.7917754 C7.31586313,14.6266031 9.58945489,15.0865351 11.9981781,15.0865351 C12.2336422,15.0865351 12.467407,15.0807188 12.699768,15.0721047 C11.6483436,15.2973219 10.4869817,15.4232934 9.27981257,15.4232934 C5.54526466,15.4229989 2.24618128,14.2231411 1.29701047,12.5771927 Z M18.4198391,16.7580312 C17.4703728,18.4036115 14.1715849,19.6037638 10.4371109,19.6037638 C7.19284846,19.6037638 4.27913715,18.6975203 2.94725405,17.3809677 C4.65896802,18.194518 6.90315447,18.642891 9.27981257,18.642891 C11.6884619,18.642891 13.9621275,18.1833271 15.6821902,17.3484257 C16.5733631,16.915882 17.2717761,16.4033822 17.7572592,15.836253 C18.0709651,16.1322233 18.2954946,16.4427713 18.4198391,16.7580312 Z M11.9981781,11.8665694 C8.73751369,11.8665694 5.80902584,10.9517119 4.48637807,9.62418926 C5.9149736,10.0607823 7.56226187,10.2954235 9.27981257,10.2954235 C11.6884619,10.2954235 13.9621275,9.83585958 15.6821902,9.00125272 C16.7237144,8.49567356 17.5026595,7.88105657 17.9855567,7.19774797 C19.025086,7.72092338 19.7206176,8.36138254 19.9809063,9.02083682 C19.0314399,10.6664171 15.7326521,11.8665694 11.9981781,11.8665694 Z" id="Fill-2"></path>
                        </g>
                    </g>
                </g>
            </g>
        </g>
    </g>
</svg>