<?xml version="1.0" encoding="UTF-8"?>
<svg width="13px" height="25px" viewBox="0 0 13 25" version="1.1" xmlns="http://www.w3.org/2000/svg" xmlns:xlink="http://www.w3.org/1999/xlink">
    <!-- Generator: Sketch 46.2 (44496) - http://www.bohemiancoding.com/sketch -->
    <title>Find</title>
    <desc>Created with Sketch.</desc>
    <defs></defs>
    <g id="Desktop" stroke="none" stroke-width="1" fill="none" fill-rule="evenodd">
        <g id="Impact" transform="translate(-330.000000, -822.000000)" fill="#E73D57">
            <g id="How-does-it-work" transform="translate(330.000000, 732.000000)">
                <g id="Find" transform="translate(0.000000, 90.000000)">
                    <g id="knife-and-fork-silhouette-variants-copy">
                        <path d="M5.43705078,1.02058041 L5.43705078,8.06167371 C5.43705078,8.43607784 4.26886547,9.35132544 3.48792577,9.92255338 L3.48792577,11.9981499 C3.88976523,12.136568 4.17994491,12.5123226 4.17994491,12.9596494 L4.17994491,23.9804324 C4.17994491,24.5435578 3.72142708,25 3.1539646,25 L2.4368305,25 C1.86936802,25 1.4105108,24.5435578 1.4105108,23.9804324 L1.4105108,12.9596494 C1.4105108,12.5123226 1.70102987,12.136568 2.10252994,11.9981499 L2.10252994,9.94483532 C1.27407545,9.37630822 0,8.44147952 0,8.06167371 L0,1.02058041 C0,0.457454997 0.274567671,-7.10542736e-15 0.886829819,-7.10542736e-15 L1.25405135,-7.10542736e-15 L1.25405135,7.34561316 C1.25405135,7.51947982 1.47703152,7.66059878 1.75261737,7.66059878 C2.02854261,7.66059878 2.25254095,7.51947982 2.25254095,7.34561316 L2.25254095,-7.10542736e-15 L3.17636444,-7.10542736e-15 L3.17636444,7.34561316 C3.17636444,7.51947982 3.40070218,7.66059878 3.67628802,7.66059878 C3.95221326,7.66059878 4.17485404,7.51947982 4.17485404,7.34561316 L4.17485404,-7.10542736e-15 L4.32724079,-7.10542736e-15 C4.93984233,-7.10542736e-15 5.43705078,0.457454997 5.43705078,1.02058041 Z M11.1574934,0.179268342 C11.1574934,0.179268342 8.42912567,1.95574672 8.42912567,6.65453539 L8.42912567,7.58430001 C8.42912567,12.2223198 9.45273024,14.2651686 10.1406767,15.4467867 L10.1406767,24.2454525 C10.1406767,24.6623948 10.4800681,25 10.8988771,25 L11.429346,25 C11.848155,25 12.1875464,24.6623948 12.1875464,24.2454525 L12.1875464,15.0048615 C12.2007827,14.9376781 12.2089281,14.8704947 12.2089281,14.8006104 L12.2089281,1.22381872 C12.2075705,0.647526705 11.980857,-0.150234298 11.1574934,0.179268342 Z"></path>
                    </g>
                </g>
            </g>
        </g>
    </g>
</svg>