<?xml version="1.0" encoding="UTF-8"?>
<svg width="134px" height="104px" viewBox="0 0 134 104" version="1.1" xmlns="http://www.w3.org/2000/svg" xmlns:xlink="http://www.w3.org/1999/xlink">
    <!-- Generator: Sketch 46.2 (44496) - http://www.bohemiancoding.com/sketch -->
    <title>Happy pie</title>
    <desc>Created with Sketch.</desc>
    <defs>
        <polygon id="path-1" points="0.159311688 0.526248613 0.159311688 86.8336523 115.801011 86.8336523 115.801011 0.526248613 0.159311688 0.526248613"></polygon>
    </defs>
    <g id="Desktop" stroke="none" stroke-width="1" fill="none" fill-rule="evenodd">
        <g id="About-us" transform="translate(-653.000000, -721.000000)">
            <g id="Happy-pie" transform="translate(653.000000, 721.000000)">
                <path d="M58.3646482,83.1051754 C52.2808853,86.1188037 57.6212279,97.8516455 59.3173116,101.548382 C59.5808294,101.091083 59.8450614,100.633784 60.1085792,100.176485 C58.3682189,100.176485 56.6278585,100.176485 54.8874981,100.176485 C53.7041673,100.176485 53.7041673,102 54.8874981,102 C56.6278585,102 58.3682189,102 60.1085792,102 C60.8569985,102 61.1805041,101.238072 60.8998469,100.627393 C59.6693828,97.9439574 54.5168592,87.044763 59.2908884,84.6794483 C60.3492446,84.1546906 59.4194337,82.581838 58.3646482,83.1051754" id="Fill-3" fill="#423625"></path>
                <path d="M73.7093479,84.6794483 C78.4845921,87.044763 73.3308704,97.9439574 72.0997471,100.627393 C71.8198166,101.238072 72.1433078,102 72.8916936,102 C74.6319762,102 76.3722589,102 78.1125415,102 C79.2958195,102 79.2958195,100.176485 78.1125415,100.176485 C76.3722589,100.176485 74.6319762,100.176485 72.8916936,100.176485 C73.1559137,100.633784 73.4194198,101.091083 73.6829259,101.548382 C75.3789338,97.8516455 80.719752,86.1188037 74.6355468,83.1051754 C73.5808084,82.581838 72.651039,84.1546906 73.7093479,84.6794483" id="Fill-4" fill="#423625"></path>
                <path d="M21.3496699,52.2228936 C12.6627395,50.9317975 7.62501761,41.4321531 5.75785088,33.6542079 C5.48224144,32.5078343 3.75462379,32.994045 4.02953549,34.1411315 C6.03206483,42.4844214 11.5875138,52.6078698 20.8731098,53.9887937 C22.0034574,54.1563297 22.4897859,52.3925683 21.3496699,52.2228936" id="Fill-5" fill="#423625"></path>
                <path d="M0.245788577,32.0445417 C1.87258762,33.3292313 3.50012713,34.6131531 5.12692617,35.8978427 C5.54825009,36.2303416 6.11174307,35.6843677 5.98068097,35.217487 C5.43866144,33.2862291 4.89590145,31.3557391 4.35388193,29.4244812 C4.14507113,28.6796223 3.02326842,28.9967633 3.23281968,29.7446938 C3.77557967,31.6759517 4.3175992,33.6064417 4.86035919,35.5376996 C5.1446973,35.3104024 5.42903541,35.0838732 5.71411399,34.8573439 C4.08657448,33.5726543 2.45903498,32.2887325 0.832235933,31.0040429 C0.235422083,30.5333227 -0.342880171,31.5807326 0.245788577,32.0445417" id="Fill-6" fill="#423625"></path>
                <path d="M1.10375883,29.8895121 C2.40733298,31.8280846 3.71090713,33.7666572 5.01448128,35.704459 C5.24794536,36.0513208 5.88618674,36.1430465 6.09415303,35.704459 C6.70849024,34.4156743 7.32203064,33.1261189 7.93636784,31.8373343 C8.27102624,31.13359 7.19294811,30.5184883 6.85589929,31.2268574 C6.24235889,32.515642 5.62802168,33.8051974 5.01448128,35.093982 C5.37463747,35.093982 5.73399684,35.093982 6.09415303,35.093982 C4.79057888,33.1561803 3.48700472,31.2176077 2.18343057,29.2790351 C1.74518743,28.6284764 0.662328461,29.2335577 1.10375883,29.8895121" id="Fill-7" fill="#423625"></path>
                <path d="M5.58725757,33.0574783 C3.9646775,32.7107734 2.34283565,32.3640685 0.720255584,32.0173636 C-0.0039259638,31.8626611 -0.310282072,32.7884304 0.412423061,32.9431329 C2.03426492,33.2892263 3.65684498,33.6359312 5.27942504,33.9826361 C6.00360659,34.1373386 6.31070091,33.2115693 5.58725757,33.0574783" id="Fill-8" fill="#423625"></path>
                <path d="M113.126847,53.9887937 C122.41278,52.6078698 127.968014,42.4851343 129.970466,34.1411315 C130.245367,32.994045 128.517816,32.5078343 128.242217,33.6542079 C126.375821,41.432866 121.337596,50.9317975 112.650305,52.2228936 C111.510233,52.3925683 111.996543,54.1563297 113.126847,53.9887937" id="Fill-9" fill="#423625"></path>
                <path d="M133.16732,31.0040429 C131.540428,32.2887325 129.912795,33.5726543 128.285902,34.8573439 C128.570997,35.0838732 128.855352,35.3104024 129.139706,35.5376996 C129.682497,33.6064417 130.223808,31.6759517 130.766599,29.7446938 C130.976162,28.9967633 129.854295,28.6796223 129.645472,29.4244812 C129.103421,31.3557391 128.561371,33.2862291 128.01932,35.217487 C127.888251,35.6843677 128.451776,36.2303416 128.873124,35.8978427 C130.500017,34.6131531 132.12765,33.3292313 133.754542,32.0445417 C134.342504,31.5807326 133.764909,30.5333227 133.16732,31.0040429" id="Fill-10" fill="#423625"></path>
                <path d="M131.816182,29.2790351 C130.512695,31.2176077 129.209208,33.1561803 127.90572,35.093982 C128.265852,35.093982 128.625188,35.093982 128.98532,35.093982 C128.37182,33.8051974 127.757524,32.515642 127.144025,31.2268574 C126.806998,30.5184883 125.728992,31.13359 126.063628,31.8373343 C126.677924,33.1261189 127.291424,34.4156743 127.90572,35.704459 C128.114469,36.1430465 128.751871,36.0513208 128.98532,35.704459 C130.288807,33.7666572 131.593092,31.8280846 132.896579,29.8895121 C133.337183,29.2335577 132.254396,28.6284764 131.816182,29.2790351" id="Fill-11" fill="#423625"></path>
                <path d="M128.721328,33.9826361 C130.343308,33.6359312 131.965289,33.2892263 133.587269,32.9431329 C134.310774,32.7884304 134.003653,31.8626611 133.278672,32.0173636 C131.656692,32.3640685 130.034711,32.7107734 128.412731,33.0574783 C127.689226,33.2115693 127.996347,34.1373386 128.721328,33.9826361" id="Fill-12" fill="#423625"></path>
                <path d="M65.0003522,104 C38.4900453,104 17,102.656762 17,101.000381 C17,99.4819048 35.0316584,98.2278095 58.4365327,98.0281905 C58.617589,98.4982857 58.7930093,98.9394286 58.9578621,99.3447619 C57.7052625,99.3447619 56.4526628,99.3447619 55.2000631,99.3447619 C54.0327078,99.3447619 54.0327078,101.301333 55.2000631,101.301333 C56.9169278,101.301333 58.6337925,101.301333 60.3506572,101.301333 C61.0889724,101.301333 61.4081105,100.48381 61.1312423,99.8285714 C60.9508905,99.399619 60.6838853,98.7748571 60.3760191,98.0137143 C61.8977375,98.0045714 63.4405909,98 65.0003522,98 C67.6971754,98 70.3404566,98.0137143 72.9161059,98.040381 C72.6131712,98.7900952 72.350393,99.4049524 72.1714502,99.8285714 C71.8952865,100.48381 72.2144246,101.301333 72.9527398,101.301333 C74.6696045,101.301333 76.3864692,101.301333 78.1033339,101.301333 C79.2706892,101.301333 79.2706892,99.3447619 78.1033339,99.3447619 C76.8507342,99.3447619 75.5981345,99.3447619 74.3455349,99.3447619 C74.5061607,98.9500952 74.677354,98.520381 74.8527743,98.0632381 C96.6365958,98.3474286 113,99.5542857 113,101.000381 C113,102.656762 91.5099547,104 65.0003522,104" id="Fill-109" fill="#DEDAD3"></path>
                <path d="M60.1085792,101 C58.3682189,101 56.6278585,101 54.8874981,101 C53.7041673,101 53.7041673,99.2146002 54.8874981,99.2146002 C56.1572399,99.2146002 57.4269817,99.2146002 58.6967235,99.2146002 C58.5296146,98.8447277 58.3517936,98.4421784 58.1682595,98.0132097 C58.8195557,98.0076477 59.4751366,98.0034762 60.1342883,98 C60.4463677,98.6945539 60.7170269,99.2646582 60.8998469,99.6560834 C61.1805041,100.253998 60.8569985,101 60.1085792,101" id="Fill-110" fill="#3E3323"></path>
                <path d="M78.1125415,101 C76.3722589,101 74.6319762,101 72.8916936,101 C72.1433078,101 71.8198166,100.247897 72.0997471,99.6450935 C72.2811307,99.2553738 72.5474932,98.6897196 72.8545599,98 C73.512968,98.0063084 74.1692338,98.0133178 74.8176445,98.021028 C74.6398314,98.4415888 74.466303,98.8369159 74.3034863,99.2 C75.5731714,99.2 76.8428564,99.2 78.1125415,99.2 C79.2958195,99.2 79.2958195,101 78.1125415,101" id="Fill-111" fill="#3E3323"></path>
                <g id="pie" transform="translate(10.000000, 0.000000)">
                    <g id="Group-4">
                        <mask id="mask-2" fill="white">
                            <use xlink:href="#path-1"></use>
                        </mask>
                        <g id="Clip-2"></g>
                        <path d="M68.5358883,86.8336523 C76.2014357,86.8336523 83.3385994,83.3498865 88.0064318,77.5506268 C91.075837,73.7484806 94.1877253,69.985803 97.7430312,66.6151806 L103.053421,61.5684564 L102.888799,61.5684564 C110.440173,61.5684564 115.801011,55.771828 115.801011,48.6174781 C115.801011,41.4657594 109.672821,35.6664997 102.121447,35.6664997 C102.121447,12.7667913 82.5287649,0.526248613 58.3611818,0.526248613 C34.1962539,0.526248613 13.6795636,12.7667913 13.6795636,35.6664997 C6.12022403,35.6664997 0,41.4657594 0,48.6174781 C0,55.771828 6.12022403,61.5684564 13.6795636,61.5684564 L18.9899532,66.6151806 C22.5372935,69.985803 25.6598026,73.7484806 28.718587,77.5506268 C33.3864195,83.3498865 40.5235831,86.8336523 48.1864753,86.8336523 L68.5358883,86.8336523 Z" id="Fill-1" fill="#EEAF4B" mask="url(#mask-2)"></path>
                        <path d="M13.6795636,61.5684564 C6.12022403,61.5684564 0,55.771828 0,48.6174781 C0,41.4657594 6.12022403,35.6664997 13.6795636,35.6664997 C13.6795636,12.7667913 34.1962539,0.526248613 58.3611818,0.526248613 C82.5287649,0.526248613 102.121447,12.7667913 102.121447,35.6664997 C109.672821,35.6664997 115.801011,41.4657594 115.801011,48.6174781 C115.801011,55.771828 110.440173,61.5684564 102.888799,61.5684564 L103.053421,61.5684564 C94.8409032,61.5684564 88.1816747,56.8611626 88.1816747,51.0434842 C88.1816747,56.8611626 81.5224461,61.5684564 73.3178942,61.5684564 C65.1053766,61.5684564 58.4461481,56.8611626 58.4461481,51.0434842 C58.4461481,56.8611626 51.7869195,61.5684564 43.5717468,61.5684564 C35.3671948,61.5684564 28.7079662,56.8611626 28.7079662,51.0434842 C28.7079662,56.8611626 22.0513929,61.5684564 13.8362201,61.5684564" id="Fill-3" fill="#FBD490" mask="url(#mask-2)"></path>
                    </g>
                    <path d="M58.2905974,80.04 C47.5638038,80.04 44.9848144,79.3467288 39.3338325,77.4443739 C38.236503,77.0657958 37.6878382,75.9750176 38.1013247,74.9954468 C38.5148112,74.0229743 39.7367168,73.5331889 40.8340463,73.8952042 C46.3843071,75.7809963 48.2370447,76.3985519 62.5367855,76.232924 C63.7162822,76.2045306 64.6678313,77.0468669 64.6784335,78.0903228 C64.6996379,79.1456092 63.7666428,79.9950439 62.5977483,80.0139728 C61.023319,80.0329017 59.5946702,80.04 58.2905974,80.04 Z" id="Fill-5" fill="#DC9628"></path>
                    <path d="M35.0390388,72.384 C34.423938,72.384 33.8060665,72.1322897 33.3738335,71.6502914 C32.1935049,70.3328292 31.0353421,68.9109341 29.929823,67.4033504 C29.2288298,66.4420314 29.4643413,65.1031471 30.472885,64.4229939 C31.4675751,63.7428406 32.8529373,63.9731287 33.5567013,64.9344477 C34.5624742,66.3161763 35.6347446,67.6229274 36.7180978,68.8252455 C37.5188372,69.7142647 37.4218618,71.0745711 36.5019813,71.8484463 C36.0780605,72.2045895 35.559935,72.384 35.0390388,72.384 Z" id="Fill-6" fill="#DC9628"></path>
                    <path d="M64.6787879,30.392 C64.6787879,35.1415092 61.8455626,38.976 58.3528342,38.976 C54.8601057,38.976 52.0242424,35.1415092 52.0242424,30.392 C52.0242424,25.6559075 54.8601057,13.224 58.3528342,13.224 C61.8455626,13.224 64.6787879,25.6559075 64.6787879,30.392 Z" id="Fill-7" fill="#F7C679"></path>
                    <path d="M87.3755419,28.7994618 C88.7362998,32.0050555 87.2418259,35.7129203 84.045749,37.0777301 C80.8496722,38.4451696 77.1528155,36.9462455 75.7920576,33.7406518 C74.4391653,30.535058 73.4664463,21.0234645 76.6625231,19.656025 C79.8559781,18.2912152 86.0121622,25.593868 87.3755419,28.7994618 Z" id="Fill-8" fill="#F7C679"></path>
                    <path d="M29.328484,28.7994618 C27.9655192,32.0050555 29.4621594,35.7129203 32.6546424,37.0777301 C35.8497465,38.4451696 39.545478,36.9462455 40.9084428,33.7406518 C42.2687866,30.535058 43.2333463,21.0234645 40.0382422,19.656025 C36.8431382,18.2912152 30.6888278,25.593868 29.328484,28.7994618 Z" id="Fill-9" fill="#F7C679"></path>
                </g>
                <path d="M68.8431032,42.5577125 C68.8423922,42.9288972 68.6952125,43.2509648 68.4499131,43.4958484 C68.2017696,43.7386271 67.8754148,43.8831716 67.5,43.8845749 C67.1245852,43.8831716 66.7989414,43.7386271 66.5507979,43.4958484 C66.3054985,43.2509648 66.1583188,42.9288972 66.1576078,42.5577125 C66.1576078,41.6974623 65.4508611,41 64.5791594,41 C63.7067467,41 63,41.6974623 63,42.5577125 C63.001422,45.010759 65.0128772,46.9985967 67.5,47 C69.9864118,46.9985967 71.999289,45.0114606 72,42.5577125 C72,41.6974623 71.2932533,41 70.4215516,41 C69.5498499,41 68.8431032,41.6974623 68.8431032,42.5577125" id="Fill-34" fill="#423625"></path>
                <g id="eye" transform="translate(32.000000, 21.000000)">
                    <path d="M23.6660571,12.1009 C23.6660571,18.6655 18.4525714,23.9876 12.0212571,23.9876 C5.59062857,23.9876 0.377828571,18.6655 0.377828571,12.1009 C0.377828571,5.5349 5.59062857,0.2135 12.0212571,0.2135 C18.4525714,0.2135 23.6660571,5.5349 23.6660571,12.1009" id="Fill-35" fill="#EEE9E3"></path>
                    <path d="M20.3389714,12.1009 C20.3389714,16.7909 16.6148571,20.5898 12.0212571,20.5898 C7.42834286,20.5898 3.70354286,16.7909 3.70354286,12.1009 C3.70354286,7.4116 7.42834286,3.6099 12.0212571,3.6099 C16.6148571,3.6099 20.3389714,7.4116 20.3389714,12.1009" id="Fill-36" fill="#423625"></path>
                    <path d="M7.57645714,27.4169 C9.99154286,27.5877 12.8914286,27.4008 15.5190857,27.2314 C18.1707429,27.0599 20.904,26.852 23.6070857,26.9409 C23.0166857,20.9398 18.0562286,16.2561 12.0212571,16.2561 C6.50057143,16.2561 1.88091429,20.1789 0.682285714,25.4429 C2.88274286,26.775 4.87611429,27.2251 7.57645714,27.4169" id="Fill-39" fill="#FBD490"></path>
                    <path d="M16.1808,8.2796 C16.1808,8.9047 15.6843429,9.4122 15.0713143,9.4122 C14.4596571,9.4122 13.9625143,8.9047 13.9625143,8.2796 C13.9625143,7.6545 14.4596571,7.1477 15.0713143,7.1477 C15.6843429,7.1477 16.1808,7.6545 16.1808,8.2796" id="Fill-43" fill="#EEE9E3"></path>
                </g>
                <g id="eye" transform="translate(78.000000, 20.000000)">
                    <path d="M11.6427429,3.38023256 C11.6427429,4.3527907 10.8685714,5.14186047 9.912,5.14186047 C8.95474286,5.14186047 8.18057143,4.3527907 8.18057143,3.38023256 C8.18057143,2.40697674 8.95474286,1.61790698 9.912,1.61790698 C10.8685714,1.61790698 11.6427429,2.40697674 11.6427429,3.38023256" id="Fill-30" fill="#D08630"></path>
                    <path d="M23.5097143,12.0606977 C23.5097143,18.6034884 18.2969143,23.907907 11.8662857,23.907907 C5.43497143,23.907907 0.221485714,18.6034884 0.221485714,12.0606977 C0.221485714,5.51651163 5.43497143,0.212790698 11.8662857,0.212790698 C18.2969143,0.212790698 23.5097143,5.51651163 23.5097143,12.0606977" id="Fill-37" fill="#EEE9E3"></path>
                    <path d="M20.1833143,12.0606977 C20.1833143,16.7351163 16.4598857,20.5213953 11.8662857,20.5213953 C7.27268571,20.5213953 3.54857143,16.7351163 3.54857143,12.0606977 C3.54857143,7.38697674 7.27268571,3.59790698 11.8662857,3.59790698 C16.4598857,3.59790698 20.1833143,7.38697674 20.1833143,12.0606977" id="Fill-38" fill="#423625"></path>
                    <path d="M13.4941714,29.0972093 C16.8342857,28.7909302 20.1572571,28.3472093 23.4953143,28.1686047 C23.1990857,21.8944186 18.1062857,16.8997674 11.8662857,16.8997674 C5.73257143,16.8997674 0.7104,21.724186 0.258514286,27.8469767 C4.27268571,29.7048837 9.01577143,29.5067442 13.4941714,29.0972093" id="Fill-41" fill="#FBD490"></path>
                    <path d="M16.3014857,8.25209302 C16.3014857,8.87511628 15.8057143,9.38093023 15.192,9.38093023 C14.5803429,9.38093023 14.0838857,8.87511628 14.0838857,8.25209302 C14.0838857,7.62906977 14.5803429,7.12395349 15.192,7.12395349 C15.8057143,7.12395349 16.3014857,7.62906977 16.3014857,8.25209302" id="Fill-44" fill="#EEE9E3"></path>
                </g>
                <path d="M40.5,16.5 L54,13" id="Line-2" stroke="#423625" stroke-width="2" stroke-linecap="round"></path>
            </g>
        </g>
    </g>
</svg>