<?xml version="1.0" encoding="UTF-8" standalone="no"?>
<svg width="20px" height="20px" viewBox="0 0 20 20" version="1.1" xmlns="http://www.w3.org/2000/svg" xmlns:xlink="http://www.w3.org/1999/xlink">
    <!-- Generator: Sketch 43.2 (39069) - http://www.bohemiancoding.com/sketch -->
    <title>Fill 1</title>
    <desc>Created with Sketch.</desc>
    <defs></defs>
    <g id="Symbols" stroke="none" stroke-width="1" fill="none" fill-rule="evenodd">
        <g id="Footer" transform="translate(-388.000000, -278.000000)" fill="#A2A2A2">
            <g id="Logos">
                <g transform="translate(289.000000, 275.000000)">
                    <g id="SM" transform="translate(67.000000, 3.000000)">
                        <g id="004-facebook" transform="translate(32.000000, 0.000000)">
                            <path d="M17.2957946,0.0103667482 L2.69364303,0.0103667482 C1.20601467,0.0103667482 0,1.21633252 0,2.70400978 L0,17.3062592 C0,18.7939364 1.20596577,19.9999022 2.69364303,19.9999022 L9.89535452,19.9999022 L9.90762836,12.8567237 L8.05183374,12.8567237 C7.81066015,12.8567237 7.61491443,12.6617115 7.61398533,12.4205379 L7.60508557,10.1179951 C7.60415648,9.87550122 7.800489,9.67843521 8.04298289,9.67843521 L9.89540342,9.67843521 L9.89540342,7.45359413 C9.89540342,4.87168704 11.4722738,3.46581907 13.7755012,3.46581907 L15.6654768,3.46581907 C15.9072861,3.46581907 16.1033741,3.66185819 16.1033741,3.90371638 L16.1033741,5.84523227 C16.1033741,6.08699267 15.9074328,6.28298289 15.6657213,6.28312958 L14.505868,6.28366748 C13.2533007,6.28366748 13.0107579,6.87887531 13.0107579,7.75237164 L13.0107579,9.67848411 L15.7630807,9.67848411 C16.0253301,9.67848411 16.228802,9.90748166 16.1978973,10.1679218 L15.9249878,12.4704645 C15.8988753,12.6908068 15.7120293,12.8568215 15.4901711,12.8568215 L13.0230318,12.8568215 L13.0107579,20 L17.2958924,20 C18.7835208,20 19.9894866,18.7940342 19.9894866,17.3064059 L19.9894866,2.70400978 C19.9894377,1.21633252 18.7834719,0.0103667482 17.2957946,0.0103667482" id="Fill-1"></path>
                        </g>
                    </g>
                </g>
            </g>
        </g>
    </g>
</svg>