<?xml version="1.0" encoding="UTF-8" standalone="no"?>
<svg width="31px" height="26px" viewBox="0 0 31 26" version="1.1" xmlns="http://www.w3.org/2000/svg" xmlns:xlink="http://www.w3.org/1999/xlink">
    <!-- Generator: Sketch 43.2 (39069) - http://www.bohemiancoding.com/sketch -->
    <title>Feedmee heart</title>
    <desc>Created with Sketch.</desc>
    <defs></defs>
    <g id="Symbols" stroke="none" stroke-width="1" fill="none" fill-rule="evenodd">
        <g id="Footer" transform="translate(-289.000000, -275.000000)" fill="#4A4A4A">
            <g id="Logos">
                <g transform="translate(289.000000, 275.000000)">
                    <path d="M4.21060114e-14,8.97917832 C0.122288265,13.8662366 4.10313861,20.0608402 15.441139,25.88641 L20.5832584,22.7811141 L14.834308,17.1389722 C14.834308,17.1389722 14.4236964,17.3274862 13.9117524,17.5527338 C13.6424536,17.6712214 12.6245264,17.9005397 11.7305629,17.6940951 C10.9250896,17.508101 10.2224024,16.8895425 10.2224024,16.8895425 L6.03952366,12.651418 C6.03952366,12.651418 5.72481672,12.1243541 6.10368627,11.7221748 C6.48250735,11.3199954 7.0086989,11.6225386 7.0086989,11.6225386 C7.0086989,11.6225386 11.0278757,15.6322655 11.357218,15.9288479 C11.6865602,16.2254304 12.4027196,16.3425611 12.8159481,16.2824207 C13.2292251,16.2222804 13.7914718,16.021748 13.7914718,16.021748 L8.28080501,10.4872868 C8.28080501,10.4872868 7.89553859,9.93003168 8.41276481,9.49654638 C8.92999104,9.06306108 9.38111621,9.56521588 9.38111621,9.56521588 L14.834308,15.1256523 C14.834308,15.1256523 15.1308904,14.6473404 15.1308904,14.1977175 C15.1308904,13.7480462 15.1449442,13.774506 15.0282012,13.2630466 C14.9114582,12.7515388 10.564393,8.42133807 10.564393,8.42133807 C10.564393,8.42133807 10.0751288,7.93115318 10.6271017,7.39740169 C11.1791231,6.86369865 11.6233183,7.39740169 11.6233183,7.39740169 C11.6233183,7.39740169 14.5023004,10.1784437 15.9650528,11.9092834 C16.1492053,12.1272134 16.6193273,13.0554389 16.5600108,14.1057382 C16.5007428,15.1560374 15.9113094,16.083633 15.9113094,16.083633 C15.9113094,16.083633 21.8551222,22.0473149 21.9050372,22.0119382 C27.8331971,17.8086573 30.6478712,13.4785535 30.8953624,9.59017339 C31.0658973,6.91075446 29.9377694,4.3598546 28.6885854,2.91236746 C27.4394015,1.46492879 25.8407154,0.690761355 25.0782271,0.479470588 C21.9628999,-0.383816964 17.8906096,-0.217885866 15.4446766,3.5836518 C13.8001948,1.02572507 11.6372267,0.450393877 9.93502756,0.094446472 C8.85531236,-0.131334189 7.20506362,0.0933803259 6.46380133,0.29187734 C5.72258751,0.490374354 4.85614998,0.755408576 3.84680041,1.45683577 C1.65478902,2.98017038 0.0766588339,5.47436099 0,8.51406023 L4.20458196e-14,8.97917832 L4.21060114e-14,8.97917832 Z" id="Feedmee-heart"></path>
                </g>
            </g>
        </g>
    </g>
</svg>