<?xml version="1.0" encoding="UTF-8" standalone="no"?>
<svg width="21px" height="21px" viewBox="0 0 21 21" version="1.1" xmlns="http://www.w3.org/2000/svg" xmlns:xlink="http://www.w3.org/1999/xlink">
    <!-- Generator: Sketch 43.2 (39069) - http://www.bohemiancoding.com/sketch -->
    <title>instagram-logo</title>
    <desc>Created with Sketch.</desc>
    <defs></defs>
    <g id="Symbols" stroke="none" stroke-width="1" fill="none" fill-rule="evenodd">
        <g id="Footer" transform="translate(-356.000000, -278.000000)" fill="#989898">
            <g id="Logos">
                <g transform="translate(289.000000, 275.000000)">
                    <g id="SM" transform="translate(67.000000, 3.000000)">
                        <g id="instagram-logo">
                            <path d="M15.1209265,0.115808824 L5.76326471,0.115808824 C2.58516176,0.115808824 0,2.701125 0,5.87922794 L0,15.2367353 C0,18.4148382 2.58516176,21 5.76326471,21 L15.1209265,21 C18.2990294,21 20.8841912,18.4142206 20.8841912,15.2367353 L20.8841912,5.87922794 C20.8841912,2.701125 18.2990294,0.115808824 15.1209265,0.115808824 Z M19.03125,15.2367353 C19.03125,17.3930956 17.2772868,19.1470588 15.1209265,19.1470588 L5.76326471,19.1470588 C3.60690441,19.1470588 1.85294118,17.3930956 1.85294118,15.2367353 L1.85294118,5.87922794 C1.85294118,3.72286765 3.60690441,1.96875 5.76326471,1.96875 L15.1209265,1.96875 C17.2772868,1.96875 19.03125,3.72286765 19.03125,5.87922794 L19.03125,15.2367353 Z" id="Fill-1"></path>
                            <path d="M10.4420956,5.17711765 C7.47445588,5.17711765 5.06053676,7.59103676 5.06053676,10.5579044 C5.06053676,13.5255441 7.47445588,15.9394632 10.4420956,15.9394632 C13.4091176,15.9394632 15.8236544,13.5255441 15.8236544,10.5579044 C15.8236544,7.59103676 13.4091176,5.17711765 10.4420956,5.17711765 Z M10.4420956,14.0859044 C8.49681618,14.0859044 6.91347794,12.5038015 6.91347794,10.5579044 C6.91347794,8.61277941 8.49619853,7.02944118 10.4420956,7.02944118 C12.3879926,7.02944118 13.9707132,8.61277941 13.9707132,10.5579044 C13.9707132,12.5038015 12.387375,14.0859044 10.4420956,14.0859044 Z" id="Fill-4"></path>
                            <path d="M16.04925,3.60582353 C15.6920956,3.60582353 15.3415809,3.75004412 15.0895809,4.00327941 C14.8355735,4.25543382 14.6902721,4.60641176 14.6902721,4.96480147 C14.6902721,5.32180147 14.8361912,5.67231618 15.0895809,5.92555147 C15.3411176,6.17770588 15.6920956,6.32316176 16.04925,6.32316176 C16.4074853,6.32316176 16.7567647,6.17770588 17.01,5.92555147 C17.2633897,5.67231618 17.4080735,5.32118382 17.4080735,4.96480147 C17.4080735,4.60641176 17.2633897,4.25543382 17.01,4.00327941 C16.7578456,3.75004412 16.4074853,3.60582353 16.04925,3.60582353 Z" id="Fill-5"></path>
                        </g>
                    </g>
                </g>
            </g>
        </g>
    </g>
</svg>