<?xml version="1.0" encoding="utf-8"?>
<!-- Generator: Adobe Illustrator 19.0.0, SVG Export Plug-In . SVG Version: 6.00 Build 0)  -->
<svg version="1.1" id="Layer_1" xmlns="http://www.w3.org/2000/svg" xmlns:xlink="http://www.w3.org/1999/xlink" x="0px" y="0px"
	 viewBox="-295 387 20 20" style="enable-background:new -295 387 20 20;" xml:space="preserve">
<style type="text/css">
	.st0{fill:#1A6CA3;}
</style>
<title>Fill 1</title>
<desc>Created with Sketch.</desc>
<g id="Symbols">
	<g id="Footer" transform="translate(-449.000000, -278.000000)">
		<g id="Logos">
			<g transform="translate(289.000000, 275.000000)">
				<g id="SM" transform="translate(67.000000, 3.000000)">
					<g id="_x30_02-linkedin" transform="translate(93.000000, 0.000000)">
						<path id="Fill-1" class="st0" d="M-277.1,404.3c0,0.3-0.2,0.5-0.5,0.5h-2.4c-0.3,0-0.5-0.2-0.5-0.5v-4.4
							c0-0.7,0.2-2.9-1.7-2.9c-1.5,0-1.8,1.5-1.8,2.2v5.1c0,0.3-0.2,0.5-0.5,0.5h-2.3c-0.3,0-0.5-0.2-0.5-0.5v-9.5
							c0-0.3,0.2-0.5,0.5-0.5h2.3c0.3,0,0.5,0.2,0.5,0.5v0.8c0.5-0.8,1.4-1.5,3.1-1.5c3.9,0,3.8,3.6,3.8,5.6V404.3z M-290.5,393.5
							c-1.2,0-2.1-1-2.1-2.1c0-1.2,1-2.1,2.1-2.1s2.1,1,2.1,2.1C-288.3,392.5-289.3,393.5-290.5,393.5z M-288.8,404.3
							c0,0.3-0.2,0.5-0.5,0.5h-2.2c-0.3,0-0.5-0.2-0.5-0.5v-9.4c0-0.3,0.2-0.5,0.5-0.5h2.2c0.3,0,0.5,0.2,0.5,0.5V404.3z
							 M-276.8,387h-16.4c-1,0-1.8,0.8-1.8,1.8v16.4c0,1,0.8,1.8,1.8,1.8h16.4c1,0,1.8-0.8,1.8-1.8v-16.4
							C-275,387.8-275.8,387-276.8,387L-276.8,387z"/>
					</g>
				</g>
			</g>
		</g>
	</g>
</g>
</svg>
