<?xml version="1.0" encoding="UTF-8" standalone="no"?>
<svg width="20px" height="20px" viewBox="0 0 20 20" version="1.1" xmlns="http://www.w3.org/2000/svg" xmlns:xlink="http://www.w3.org/1999/xlink">
    <!-- Generator: Sketch 43.2 (39069) - http://www.bohemiancoding.com/sketch -->
    <title>Fill 1</title>
    <desc>Created with Sketch.</desc>
    <defs></defs>
    <g id="Symbols" stroke="none" stroke-width="1" fill="none" fill-rule="evenodd">
        <g id="Footer" transform="translate(-449.000000, -278.000000)" fill="#989898">
            <g id="Logos">
                <g transform="translate(289.000000, 275.000000)">
                    <g id="SM" transform="translate(67.000000, 3.000000)">
                        <g id="002-linkedin" transform="translate(93.000000, 0.000000)">
                            <path d="M17.9010471,17.3117277 C17.9010471,17.5790576 17.6842932,17.7958115 17.4169634,17.7958115 L15.0120419,17.7958115 C14.744712,17.7958115 14.5279581,17.5790576 14.5279581,17.3117277 L14.5279581,12.9050262 C14.5279581,12.247644 14.7207853,10.0243455 12.81,10.0243455 C11.3278534,10.0243455 11.0272251,11.5461257 10.9668586,12.2290576 L10.9668586,17.3117277 C10.9668586,17.5790576 10.7501571,17.7958115 10.4827749,17.7958115 L8.15680628,17.7958115 C7.88947644,17.7958115 7.67272251,17.5790576 7.67272251,17.3117277 L7.67272251,7.83209424 C7.67272251,7.5647644 7.88947644,7.34801047 8.15680628,7.34801047 L10.4827749,7.34801047 C10.7501047,7.34801047 10.9668586,7.5647644 10.9668586,7.83209424 L10.9668586,8.65172775 C11.5164398,7.82696335 12.3331937,7.19036649 14.072199,7.19036649 C17.923089,7.19036649 17.9010471,10.7880628 17.9010471,12.7648168 L17.9010471,17.3117277 Z M4.5417801,6.46240838 C3.36591623,6.46240838 2.41267016,5.5091623 2.41267016,4.33329843 C2.41267016,3.15743455 3.36591623,2.20418848 4.5417801,2.20418848 C5.71764398,2.20418848 6.67089005,3.15743455 6.67089005,4.33329843 C6.67089005,5.5091623 5.71769634,6.46240838 4.5417801,6.46240838 Z M6.18884817,17.2693194 C6.18884817,17.5601047 5.95314136,17.7958115 5.66235602,17.7958115 L3.42120419,17.7958115 C3.13041885,17.7958115 2.89471204,17.5601047 2.89471204,17.2693194 L2.89471204,7.87450262 C2.89471204,7.58371728 3.13041885,7.34801047 3.42120419,7.34801047 L5.66235602,7.34801047 C5.95314136,7.34801047 6.18884817,7.58371728 6.18884817,7.87450262 L6.18884817,17.2693194 Z M18.1908377,0 L1.8091623,0 C0.81,0 0,0.81 0,1.8091623 L0,18.1907853 C0,19.19 0.81,20 1.8091623,20 L18.1907853,20 C19.19,20 20,19.19 20,18.1907853 L20,1.8091623 C20,0.81 19.19,0 18.1908377,0 L18.1908377,0 Z" id="Fill-1"></path>
                        </g>
                    </g>
                </g>
            </g>
        </g>
    </g>
</svg>