<?xml version="1.0" encoding="UTF-8" standalone="no"?>
<svg width="186px" height="28px" viewBox="0 0 186 28" version="1.1" xmlns="http://www.w3.org/2000/svg" xmlns:xlink="http://www.w3.org/1999/xlink">
    <!-- Generator: Sketch 43.2 (39069) - http://www.bohemiancoding.com/sketch -->
    <title>Feedmee logo - MONO (Grey)</title>
    <desc>Created with Sketch.</desc>
    <defs></defs>
    <g id="Symbols" stroke="none" stroke-width="1" fill="none" fill-rule="evenodd">
        <g id="Menu-Tab-(white)" transform="translate(0.000000, -4.000000)" fill="#FFFFFF">
            <g id="Menu-Tab">
                <g id="Feedmee-logo---MONO-(Grey)" transform="translate(0.000000, 4.000000)">
                    <path d="M42.6439045,5.39469913 C42.6439045,4.68391893 42.7789658,4.00158544 43.04904,3.34769867 C43.3191141,2.6938119 43.6887276,2.11809302 44.1578319,1.62054203 C44.6269362,1.12299104 45.1813321,0.732103124 45.8210198,0.44778135 C46.4607074,0.163459577 47.1501647,0.0213229215 47.8893431,0.0213229215 C48.0883732,0.0213229215 48.2518328,0.09241548 48.3797703,0.234552136 C48.5077079,0.376688792 48.5716766,0.533073036 48.5716766,0.703656408 C48.5716766,1.15856155 48.3442483,1.38598989 47.8893431,1.38598989 C46.7521045,1.38598989 45.8210198,1.76980248 45.0960404,2.53742765 C44.3710611,3.30505282 44.0085714,4.2574605 44.0085714,5.39469913 L44.0085714,6.50349104 L47.8040514,6.50349104 C48.2589566,6.50349104 48.4863849,6.73091938 48.4863849,7.18582453 C48.4863849,7.3564079 48.4224162,7.51279215 48.2944786,7.6549288 C48.1665411,7.79706546 48.0030815,7.86815802 47.8040514,7.86815802 L44.0085714,7.86815802 L44.0085714,26.5043914 C44.0085714,26.9592965 43.7811431,27.1867249 43.3262379,27.1867249 C42.8713328,27.1867249 42.6439045,26.9592965 42.6439045,26.5043914 L42.6439045,7.86815802 L40.1277997,7.86815802 C39.9287696,7.86815802 39.7653101,7.79706546 39.6373725,7.6549288 C39.509435,7.51279215 39.4454662,7.3564079 39.4454662,7.18582453 C39.4454662,6.73091938 39.6728946,6.50349104 40.1277997,6.50349104 L42.6439045,6.50349104 L42.6439045,5.39469913 Z M64.478576,23.4338907 C64.791296,23.1211706 65.1182637,23.1069231 65.4594304,23.3912448 C65.7721504,23.7039649 65.786398,24.0309325 65.5020763,24.3720992 C64.592266,25.1965694 63.5190446,25.8718275 62.2823151,26.3977768 C61.0455857,26.923726 59.7448875,27.1867249 58.3802205,27.1867249 C56.9586601,27.1867249 55.6224398,26.9166507 54.3715113,26.3764538 C53.1205342,25.836257 52.0259899,25.0970785 51.0877814,24.15887 C50.1495728,23.2206615 49.4103944,22.1260687 48.8701975,20.8751401 C48.3300007,19.6242115 48.0599265,18.2879428 48.0599265,16.8664309 C48.0599265,15.4449189 48.3300007,14.1015749 48.8701975,12.8363987 C49.4103944,11.5712226 50.1495728,10.4695544 51.0877814,9.53134589 C52.0259899,8.59313734 53.1205342,7.85395889 54.3715113,7.31376206 C55.6224398,6.77356523 56.9586601,6.50349104 58.3802205,6.50349104 C59.7733342,6.50349104 61.0953553,6.77356523 62.3462839,7.31376206 C63.5972124,7.85395889 64.6918052,8.58601355 65.6300138,9.51002297 C66.5682223,10.4340324 67.3145246,11.5215014 67.8689205,12.7724299 C68.4233165,14.023407 68.7147136,15.3453797 68.7431603,16.7384933 L68.7431603,16.8664309 C68.6863153,17.2928893 68.4588385,17.5061185 68.0608268,17.5061185 L49.4245935,17.5061185 C49.5098852,18.6717554 49.8012823,19.7592244 50.2988333,20.7685255 C50.7963842,21.7778266 51.450271,22.6520664 52.260542,23.3912448 C53.070813,24.1304233 54.0018978,24.7203898 55.0538447,25.1610473 C56.1057917,25.6017049 57.2145351,25.8220579 58.3802205,25.8220579 C59.5743041,25.8220579 60.683096,25.6088287 61.7065962,25.1823702 C62.7300965,24.7559118 63.6540574,24.1730691 64.478576,23.4338907 Z M58.3802205,7.86815802 C57.2145351,7.86815802 56.1057917,8.08851102 55.0538447,8.52916858 C54.0018978,8.96982614 53.0779368,9.5597926 52.281865,10.2989711 C51.4857931,11.0381495 50.8319063,11.9123893 50.3201562,12.9216904 C49.8084061,13.9309915 49.5098852,15.0042129 49.4245935,16.1414515 L67.3358475,16.1414515 C67.2505558,15.0042129 66.9520349,13.9309915 66.4402848,12.9216904 C65.9285347,11.9123893 65.2675241,11.0381495 64.4572531,10.2989711 C63.6469821,9.5597926 62.7229727,8.96982614 61.6852733,8.52916858 C60.647574,8.08851102 59.5458574,7.86815802 58.3802205,7.86815802 Z M86.5264768,23.4338907 C86.8391968,23.1211706 87.1661644,23.1069231 87.5073312,23.3912448 C87.8200512,23.7039649 87.8342988,24.0309325 87.549977,24.3720992 C86.6401667,25.1965694 85.5669453,25.8718275 84.3302159,26.3977768 C83.0934864,26.923726 81.7927882,27.1867249 80.4281213,27.1867249 C79.0065609,27.1867249 77.6703406,26.9166507 76.419412,26.3764538 C75.168435,25.836257 74.0738907,25.0970785 73.1356821,24.15887 C72.1974736,23.2206615 71.4582951,22.1260687 70.9180983,20.8751401 C70.3779015,19.6242115 70.1078273,18.2879428 70.1078273,16.8664309 C70.1078273,15.4449189 70.3779015,14.1015749 70.9180983,12.8363987 C71.4582951,11.5712226 72.1974736,10.4695544 73.1356821,9.53134589 C74.0738907,8.59313734 75.168435,7.85395889 76.419412,7.31376206 C77.6703406,6.77356523 79.0065609,6.50349104 80.4281213,6.50349104 C81.821235,6.50349104 83.1432561,6.77356523 84.3941847,7.31376206 C85.6451132,7.85395889 86.739706,8.58601355 87.6779146,9.51002297 C88.6161231,10.4340324 89.3624254,11.5215014 89.9168213,12.7724299 C90.4712173,14.023407 90.7626144,15.3453797 90.7910611,16.7384933 L90.7910611,16.8664309 C90.7342161,17.2928893 90.5067393,17.5061185 90.1087276,17.5061185 L71.4724943,17.5061185 C71.5577859,18.6717554 71.8491831,19.7592244 72.346734,20.7685255 C72.844285,21.7778266 73.4981718,22.6520664 74.3084428,23.3912448 C75.1187138,24.1304233 76.0497986,24.7203898 77.1017455,25.1610473 C78.1536925,25.6017049 79.2624359,25.8220579 80.4281213,25.8220579 C81.6222049,25.8220579 82.7309968,25.6088287 83.754497,25.1823702 C84.7779972,24.7559118 85.7019582,24.1730691 86.5264768,23.4338907 Z M80.4281213,7.86815802 C79.2624359,7.86815802 78.1536925,8.08851102 77.1017455,8.52916858 C76.0497986,8.96982614 75.1258376,9.5597926 74.3297657,10.2989711 C73.5336938,11.0381495 72.8798071,11.9123893 72.368057,12.9216904 C71.8563068,13.9309915 71.5577859,15.0042129 71.4724943,16.1414515 L89.3837483,16.1414515 C89.2984566,15.0042129 88.9999357,13.9309915 88.4881856,12.9216904 C87.9764355,11.9123893 87.3154249,11.0381495 86.5051539,10.2989711 C85.6948829,9.5597926 84.7708734,8.96982614 83.7331741,8.52916858 C82.6954747,8.08851102 81.5937582,7.86815802 80.4281213,7.86815802 Z M112.75367,26.5043914 C112.75367,26.9592965 112.526242,27.1867249 112.071337,27.1867249 C111.616432,27.1867249 111.389003,26.9592965 111.389003,26.5043914 L111.389003,21.983932 C110.50764,23.5476291 109.278034,24.8056814 107.700138,25.7580891 C106.122242,26.7104968 104.366687,27.1867249 102.433376,27.1867249 C101.011816,27.1867249 99.6755955,26.9166507 98.424667,26.3764538 C97.1736899,25.836257 96.0791456,25.0970785 95.1409371,24.15887 C94.2027285,23.2206615 93.4564263,22.1189933 92.9020303,20.8538172 C92.3476344,19.588641 92.0704364,18.245297 92.0704364,16.823785 C92.0704364,15.4022731 92.3405106,14.0660044 92.8807074,12.8150758 C93.4209042,11.5641472 94.1600827,10.4695544 95.0982912,9.53134589 C96.0364998,8.59313734 97.1381679,7.85395889 98.4033441,7.31376206 C99.6685202,6.77356523 101.011816,6.50349104 102.433376,6.50349104 C104.366687,6.50349104 106.115118,7.00811736 107.678815,8.01741847 C109.242512,9.02671957 110.479193,10.3131702 111.389003,11.8768672 L111.389003,0.703656408 C111.389003,0.248751263 111.616432,0.0213229215 112.071337,0.0213229215 C112.526242,0.0213229215 112.75367,0.248751263 112.75367,0.703656408 L112.75367,26.5043914 Z M111.389003,16.823785 C111.389003,15.6012547 111.154451,14.4427416 110.685347,13.3481488 C110.216243,12.253556 109.576555,11.3011484 108.766284,10.4908774 C107.956013,9.68060634 107.003605,9.0409187 105.909012,8.57181442 C104.81442,8.10271015 103.655907,7.86815802 102.433376,7.86815802 C101.210846,7.86815802 100.052333,8.10271015 98.95774,8.57181442 C97.8631472,9.0409187 96.9107395,9.68060634 96.1004685,10.4908774 C95.2901975,11.3011484 94.6433861,12.253556 94.1600827,13.3481488 C93.6767308,14.4427416 93.4351034,15.6012547 93.4351034,16.823785 C93.4351034,18.0463153 93.6767308,19.2048284 94.1600827,20.2994212 C94.6433861,21.394014 95.2901975,22.3464217 96.1004685,23.1566927 C96.9107395,23.9669637 97.8631472,24.6137751 98.95774,25.0970785 C100.052333,25.5803819 101.210846,25.8220579 102.433376,25.8220579 C103.62746,25.8220579 104.757575,25.5946295 105.823721,25.1397244 C106.889867,24.6848192 107.828075,24.0593792 108.638346,23.2633073 C109.448617,22.4672354 110.095429,21.5503498 110.578732,20.5126504 C111.062036,19.4749511 111.33211,18.3590354 111.389003,17.1649518 L111.389003,16.823785 Z M140.899927,26.5043914 C140.899927,26.7034215 140.828834,26.866881 140.686697,26.9948186 C140.544561,27.1227561 140.388176,27.1867249 140.217593,27.1867249 C139.762688,27.1867249 139.53526,26.9592965 139.53526,26.5043914 L139.53526,13.9665136 C139.53526,13.1135967 139.428645,12.3175248 139.215416,11.5783463 C139.002186,10.8391679 138.689466,10.1923565 138.277207,9.6379605 C137.864948,9.08356454 137.346122,8.64290698 136.720634,8.31593937 C136.095145,7.98897175 135.370166,7.82551217 134.545696,7.82551217 C133.692779,7.82551217 132.925154,7.99609554 132.24282,8.33726229 C131.560487,8.67842903 130.963445,9.13333418 130.451695,9.70192926 C129.939945,10.2705243 129.541933,10.9244596 129.257611,11.663638 C128.97329,12.4028165 128.816954,13.1704417 128.788507,13.9665136 L128.788507,26.5896831 C128.731614,26.9876948 128.504185,27.1867249 128.106174,27.1867249 C127.651268,27.1867249 127.42384,26.9592965 127.42384,26.5043914 L127.42384,13.9665136 C127.42384,13.1135967 127.317226,12.3175248 127.103996,11.5783463 C126.890767,10.8391679 126.570923,10.1923565 126.144465,9.6379605 C125.718006,9.08356454 125.192057,8.64998232 124.566569,8.33726229 C123.94108,8.02454226 123.216101,7.86815802 122.391631,7.86815802 C121.538714,7.86815802 120.771089,8.02454226 120.088755,8.33726229 C119.406422,8.64998232 118.816504,9.07644074 118.318953,9.61663757 C117.821402,10.1568344 117.430514,10.7822745 117.146192,11.4930547 C116.86187,12.2038349 116.705534,12.9572124 116.677088,13.7532843 L116.677088,26.5043914 C116.677088,26.9592965 116.449659,27.1867249 115.994754,27.1867249 C115.824171,27.1867249 115.667787,27.1227561 115.52565,26.9948186 C115.383513,26.866881 115.312421,26.7034215 115.312421,26.5043914 L115.312421,7.18582453 C115.312421,6.98679444 115.383513,6.82333486 115.52565,6.69539734 C115.667787,6.56745981 115.824171,6.50349104 115.994754,6.50349104 C116.449659,6.50349104 116.677088,6.73091938 116.677088,7.18582453 L116.677088,9.78722095 C117.558403,8.50784566 118.482412,7.64072967 119.449068,7.18582453 C120.415723,6.73091938 121.396529,6.50349104 122.391631,6.50349104 C123.841589,6.50349104 125.085394,6.88730363 126.123142,7.6549288 C127.160841,8.42255397 127.878697,9.41760749 128.276757,10.6401378 C128.76006,9.38920923 129.584579,8.38703192 130.750216,7.63360588 C131.915853,6.88017983 133.181029,6.50349104 134.545696,6.50349104 C135.569196,6.50349104 136.478958,6.70252113 137.27503,7.10053284 C138.071053,7.49854456 138.732112,8.03161759 139.258062,8.69975195 C139.784011,9.36788631 140.189146,10.1568344 140.473468,11.0665962 C140.75779,11.9763581 140.899927,12.9430133 140.899927,13.9665136 L140.899927,26.5043914 Z M159.365576,23.4338907 C159.678297,23.1211706 160.005264,23.1069231 160.346431,23.3912448 C160.659151,23.7039649 160.67335,24.0309325 160.389077,24.3720992 C159.479266,25.1965694 158.406045,25.8718275 157.169316,26.3977768 C155.932586,26.923726 154.631888,27.1867249 153.267221,27.1867249 C151.845661,27.1867249 150.50944,26.9166507 149.258512,26.3764538 C148.007535,25.836257 146.91299,25.0970785 145.974782,24.15887 C145.036573,23.2206615 144.297346,22.1260687 143.757198,20.8751401 C143.217001,19.6242115 142.946927,18.2879428 142.946927,16.8664309 C142.946927,15.4449189 143.217001,14.1015749 143.757198,12.8363987 C144.297346,11.5712226 145.036573,10.4695544 145.974782,9.53134589 C146.91299,8.59313734 148.007535,7.85395889 149.258512,7.31376206 C150.50944,6.77356523 151.845661,6.50349104 153.267221,6.50349104 C154.660335,6.50349104 155.982307,6.77356523 157.233284,7.31376206 C158.484213,7.85395889 159.578806,8.58601355 160.517014,9.51002297 C161.455223,10.4340324 162.201525,11.5215014 162.755921,12.7724299 C163.310317,14.023407 163.601714,15.3453797 163.630161,16.7384933 L163.630161,16.8664309 C163.573316,17.2928893 163.345839,17.5061185 162.947827,17.5061185 L144.311594,17.5061185 C144.396886,18.6717554 144.688283,19.7592244 145.185834,20.7685255 C145.683385,21.7778266 146.337271,22.6520664 147.147542,23.3912448 C147.957814,24.1304233 148.888898,24.7203898 149.940845,25.1610473 C150.992792,25.6017049 152.101536,25.8220579 153.267221,25.8220579 C154.461305,25.8220579 155.570096,25.6088287 156.593597,25.1823702 C157.617097,24.7559118 158.541106,24.1730691 159.365576,23.4338907 Z M153.267221,7.86815802 C152.101536,7.86815802 150.992792,8.08851102 149.940845,8.52916858 C148.888898,8.96982614 147.964937,9.5597926 147.168865,10.2989711 C146.372794,11.0381495 145.718907,11.9123893 145.207157,12.9216904 C144.695407,13.9309915 144.396886,15.0042129 144.311594,16.1414515 L162.222848,16.1414515 C162.137556,15.0042129 161.839035,13.9309915 161.327285,12.9216904 C160.815535,11.9123893 160.154525,11.0381495 159.344254,10.2989711 C158.533983,9.5597926 157.609973,8.96982614 156.572274,8.52916858 C155.534526,8.08851102 154.432858,7.86815802 153.267221,7.86815802 Z M181.413477,23.4338907 C181.726197,23.1211706 182.053165,23.1069231 182.394332,23.3912448 C182.707052,23.7039649 182.721299,24.0309325 182.436977,24.3720992 C181.527216,25.1965694 180.453946,25.8718275 179.217216,26.3977768 C177.980487,26.923726 176.679789,27.1867249 175.315122,27.1867249 C173.89361,27.1867249 172.557341,26.9166507 171.306412,26.3764538 C170.055435,25.836257 168.960891,25.0970785 168.022683,24.15887 C167.084474,23.2206615 166.345296,22.1260687 165.805099,20.8751401 C165.264902,19.6242115 164.994828,18.2879428 164.994828,16.8664309 C164.994828,15.4449189 165.264902,14.1015749 165.805099,12.8363987 C166.345296,11.5712226 167.084474,10.4695544 168.022683,9.53134589 C168.960891,8.59313734 170.055435,7.85395889 171.306412,7.31376206 C172.557341,6.77356523 173.89361,6.50349104 175.315122,6.50349104 C176.708235,6.50349104 178.030257,6.77356523 179.281185,7.31376206 C180.532114,7.85395889 181.626706,8.58601355 182.564915,9.51002297 C183.503124,10.4340324 184.249426,11.5215014 184.803822,12.7724299 C185.358218,14.023407 185.649615,15.3453797 185.678062,16.7384933 L185.678062,16.8664309 C185.621217,17.2928893 185.39374,17.5061185 184.995728,17.5061185 L166.359495,17.5061185 C166.444786,18.6717554 166.736184,19.7592244 167.233734,20.7685255 C167.731285,21.7778266 168.385172,22.6520664 169.195443,23.3912448 C170.005714,24.1304233 170.936799,24.7203898 171.988746,25.1610473 C173.040693,25.6017049 174.149436,25.8220579 175.315122,25.8220579 C176.509205,25.8220579 177.617997,25.6088287 178.641497,25.1823702 C179.664998,24.7559118 180.588959,24.1730691 181.413477,23.4338907 Z M175.315122,7.86815802 C174.149436,7.86815802 173.040693,8.08851102 171.988746,8.52916858 C170.936799,8.96982614 170.012838,9.5597926 169.216766,10.2989711 C168.420694,11.0381495 167.766808,11.9123893 167.255057,12.9216904 C166.743307,13.9309915 166.444786,15.0042129 166.359495,16.1414515 L184.270749,16.1414515 C184.185457,15.0042129 183.886936,13.9309915 183.375186,12.9216904 C182.863436,11.9123893 182.202425,11.0381495 181.392154,10.2989711 C180.581883,9.5597926 179.657874,8.96982614 178.620175,8.52916858 C177.582427,8.08851102 176.480759,7.86815802 175.315122,7.86815802 Z" id="Clip-2"></path>
                    <path d="M0.00290767111,9.60917811 C0.125195936,14.4962364 4.10604628,20.69084 15.4440466,26.5164097 L20.5861661,23.4111139 L14.8372157,17.768972 C14.8372157,17.768972 14.426604,17.957486 13.9146601,18.1827336 C13.6453613,18.3012212 12.6274341,18.5305395 11.7334706,18.3240949 C10.9279972,18.1381008 10.2253101,17.5195423 10.2253101,17.5195423 L6.04243133,13.2814178 C6.04243133,13.2814178 5.72772439,12.7543539 6.10659394,12.3521746 C6.48541502,11.9499952 7.01160657,12.2525384 7.01160657,12.2525384 C7.01160657,12.2525384 11.0307834,16.2622653 11.3601256,16.5588477 C11.6894678,16.8554302 12.4056272,16.9725609 12.8188558,16.9124205 C13.2321328,16.8522802 13.7943794,16.6517478 13.7943794,16.6517478 L8.28371268,11.1172866 C8.28371268,11.1172866 7.89844626,10.5600315 8.41567249,10.1265462 C8.93289871,9.69306086 9.38402389,10.1952157 9.38402389,10.1952157 L14.8372157,15.755652 C14.8372157,15.755652 15.1337981,15.2773401 15.1337981,14.8277173 C15.1337981,14.3780459 15.1478519,14.4045057 15.0311089,13.8930464 C14.9143659,13.3815386 10.5673006,9.05133785 10.5673006,9.05133785 C10.5673006,9.05133785 10.0780365,8.56115296 10.6300094,8.02740147 C11.1820308,7.49369844 11.626226,8.02740147 11.626226,8.02740147 C11.626226,8.02740147 14.5052081,10.8084435 15.9679605,12.5392832 C16.152113,12.7572131 16.622235,13.6854387 16.5629185,14.7357379 C16.5036504,15.7860372 15.914217,16.7136328 15.914217,16.7136328 C15.914217,16.7136328 21.8580299,22.6773147 21.9079449,22.641938 C27.8361047,18.4386571 30.6507788,14.1085533 30.8982701,10.2201732 C31.068805,7.54075425 29.9406771,4.98985439 28.6914931,3.54236725 C27.4423091,2.09492857 25.8436231,1.32076114 25.0811348,1.10947037 C21.9658075,0.24618282 17.8935172,0.412113918 15.4475843,4.21365158 C13.8031024,1.65572485 11.6401344,1.08039366 9.93793523,0.724446256 C8.85822003,0.498665595 7.20797129,0.72338011 6.466709,0.921877124 C5.72549518,1.12037414 4.85905765,1.38540836 3.84970808,2.08683555 C1.65769669,3.61017016 0.079566505,6.10436078 0.00290767111,9.14406001 L0.00290767111,9.60917811 L0.00290767111,9.60917811 Z" id="Clip-8"></path>
                </g>
            </g>
        </g>
    </g>
</svg>