<?xml version="1.0" encoding="UTF-8" standalone="no"?>
<svg width="20px" height="17px" viewBox="0 0 20 17" version="1.1" xmlns="http://www.w3.org/2000/svg" xmlns:xlink="http://www.w3.org/1999/xlink">
    <!-- Generator: Sketch 43.2 (39069) - http://www.bohemiancoding.com/sketch -->
    <title>Medium</title>
    <desc>Created with Sketch.</desc>
    <defs></defs>
    <g id="Symbols" stroke="none" stroke-width="1" fill="none" fill-rule="evenodd">
        <g id="Footer" transform="translate(-479.000000, -280.000000)" fill="#A2A2A2">
            <g id="Logos">
                <g transform="translate(289.000000, 275.000000)">
                    <g id="SM" transform="translate(67.000000, 3.000000)">
                        <g id="Medium" transform="translate(123.000000, 2.000000)">
                            <path d="M19.7809434,3.08056604 C19.7771698,3.07754717 19.7741509,3.07358491 19.769434,3.07132075 L19.7626415,3.06792453 L13.8060377,0.0896226415 C13.7658491,0.0694339623 13.7235849,0.0558490566 13.6807547,0.0449056604 C13.6269811,0.0311320755 13.5720755,0.0226415094 13.5169811,0.0226415094 C13.2888679,0.0226415094 13.0618868,0.137169811 12.9388679,0.336792453 L9.50962264,5.90962264 L13.8132075,12.9028302 L19.7992453,3.17566038 C19.8190566,3.14320755 19.8096226,3.10320755 19.7809434,3.08056604" id="Fill-53"></path>
                            <polyline id="Fill-54" points="7.62075472 4.64018868 7.62075472 10.9837736 13.2592453 13.8030189 7.62075472 4.64018868"></polyline>
                            <path d="M14.1064151,14.2266038 L18.7477358,16.5471698 C19.3516981,16.8492453 19.8413208,16.6377358 19.8413208,16.0750943 L19.8413208,4.90735849 L14.1064151,14.2266038" id="Fill-55"></path>
                            <path d="M6.64188679,3.08962264 L0.824339623,0.180754717 C0.719245283,0.128301887 0.619245283,0.103396226 0.528679245,0.103396226 C0.273962264,0.103396226 0.0952830189,0.300566038 0.0952830189,0.631320755 L0.0952830189,13.1916981 C0.0952830189,13.5279245 0.341320755,13.9260377 0.642075472,14.0764151 L5.76603774,16.6383019 C5.89735849,16.7039623 6.02245283,16.7350943 6.1354717,16.7350943 C6.45396226,16.7350943 6.67735849,16.4886792 6.67735849,16.0750943 L6.67735849,3.14679245 C6.67735849,3.12264151 6.66358491,3.10037736 6.64188679,3.08962264" id="Fill-56"></path>
                        </g>
                    </g>
                </g>
            </g>
        </g>
    </g>
</svg>