<?xml version="1.0" encoding="UTF-8" standalone="no"?>
<svg width="20px" height="17px" viewBox="0 0 20 17" version="1.1" xmlns="http://www.w3.org/2000/svg" xmlns:xlink="http://www.w3.org/1999/xlink">
    <!-- Generator: Sketch 43.2 (39069) - http://www.bohemiancoding.com/sketch -->
    <title>Fill 1</title>
    <desc>Created with Sketch.</desc>
    <defs></defs>
    <g id="Symbols" stroke="none" stroke-width="1" fill="none" fill-rule="evenodd">
        <g id="Footer" transform="translate(-418.000000, -280.000000)" fill="#989898">
            <g id="Logos">
                <g transform="translate(289.000000, 275.000000)">
                    <g id="SM" transform="translate(67.000000, 3.000000)">
                        <g id="003-twitter" transform="translate(62.000000, 2.000000)">
                            <path d="M19.6414599,1.97158151 C19.1980049,2.16822384 18.7376642,2.32335766 18.2653041,2.4356691 C18.7857908,1.94107056 19.177129,1.32243309 19.3979075,0.631922141 C19.4609246,0.434793187 19.2468127,0.2643309 19.0688078,0.369878345 C18.4116788,0.759659367 17.7038443,1.05206813 16.9649148,1.23907543 C16.9220438,1.24992701 16.8778102,1.25542579 16.8334307,1.25542579 C16.6988321,1.25542579 16.5679805,1.20545012 16.4650608,1.11474453 C15.6788808,0.421849148 14.6677372,0.040243309 13.6179562,0.040243309 C13.1636983,0.040243309 12.7050608,0.111046229 12.2547445,0.250705596 C10.8595134,0.683454988 9.78296837,1.83435523 9.44520681,3.25430657 C9.31849148,3.78690998 9.28418491,4.32 9.34316302,4.83873479 C9.34992701,4.8983455 9.32175182,4.93995134 9.30437956,4.95946472 C9.27386861,4.99367397 9.23060827,5.01328467 9.18569343,5.01328467 C9.18068127,5.01328467 9.17552311,5.01304136 9.17041363,5.01255474 C6.1163017,4.72880779 3.36223844,3.25742092 1.41552311,0.869489051 C1.31625304,0.747688564 1.12588808,0.762627737 1.04676399,0.898345499 C0.665547445,1.5523601 0.464087591,2.30038929 0.464087591,3.06155718 C0.464087591,4.22807786 0.932749392,5.32739659 1.74681265,6.12880779 C1.40447689,6.0476399 1.07313869,5.91980535 0.765352798,5.74885645 C0.616447689,5.66613139 0.43323601,5.77245742 0.431143552,5.94277372 C0.409829684,7.67571776 1.42442822,9.2177129 2.9443309,9.91206813 C2.91372263,9.91279805 2.88311436,9.91313869 2.85245742,9.91313869 C2.61153285,9.91313869 2.36759124,9.88987835 2.12749392,9.84399027 C1.95980535,9.8119708 1.81892944,9.97104623 1.87099757,10.1336253 C2.3643309,11.67382 3.69046229,12.8090998 5.27742092,13.0668613 C3.96034063,13.9509976 2.42656934,14.4173723 0.830218978,14.4173723 L0.332554745,14.4170803 C0.179221411,14.4170803 0.0495377129,14.5170316 0.0104622871,14.6655474 C-0.0280291971,14.8118248 0.0428710462,14.9661314 0.173625304,15.0421898 C1.97245742,16.0890511 4.02428224,16.6423358 6.10817518,16.6423358 C7.93226277,16.6423358 9.63854015,16.2803406 11.1796594,15.566472 C12.5924574,14.9120195 13.8409246,13.9764964 14.890365,12.7858881 C15.8679805,11.6767883 16.6324574,10.3964477 17.1624818,8.98048662 C17.6677372,7.63075426 17.9347932,6.19055961 17.9347932,4.81557178 L17.9347932,4.75007299 C17.9347445,4.5292944 18.0345985,4.32155718 18.2088078,4.18014599 C18.8698783,3.64340633 19.4455474,3.01158151 19.9197567,2.30223844 C20.0449635,2.11493917 19.8474939,1.88019465 19.6414599,1.97158151" id="Fill-1"></path>
                        </g>
                    </g>
                </g>
            </g>
        </g>
    </g>
</svg>