<?xml version="1.0" encoding="UTF-8" standalone="no"?>
<svg width="4809px" height="968px" viewBox="0 0 4809 968" version="1.1" xmlns="http://www.w3.org/2000/svg" xmlns:xlink="http://www.w3.org/1999/xlink">
    <!-- Generator: Sketch 42 (36781) - http://www.bohemiancoding.com/sketch -->
    <title>Feedmee logo white</title>
    <desc>Created with Sketch.</desc>
    <defs>
        <path d="M318.689577,534.1676 C-70.8680095,334.010251 -39.5307199,112.739638 79.4395175,30.0621317 C100.267217,15.5880728 118.145761,10.1189612 133.441471,6.0230692 C148.73718,1.92717723 182.78979,-2.71016647 205.070377,1.94885045 C240.195546,9.29375394 284.828268,21.1660844 318.762099,73.9488504 C369.234302,-4.49611017 453.265677,-7.92015195 517.550846,9.89416295 C533.285462,14.254444 566.273814,30.2286794 592.050846,60.0972879 C617.827878,89.9658965 641.106719,142.604393 637.587955,197.894163 C630.890635,303.128071 533.067231,424.043211 318.689577,534.1676 Z" id="path-1"></path>
    </defs>
    <g id="Page-1" stroke="none" stroke-width="1" fill="none" fill-rule="evenodd">
        <g id="Feedmee-logo-white">
            <rect id="Rectangle" fill="#E73D57" x="0" y="0" width="4809" height="968"></rect>
            <g id="Heart" transform="translate(231.000000, 192.000000)">
                <g id="Line-+-Line-Copy-+-Line-Copy-2-+-Path-2-Mask">
                    <mask id="mask-2" fill="white">
                        <use xlink:href="#path-1"></use>
                    </mask>
                    <use id="Mask" fill="#FFFFFF" xlink:href="#path-1"></use>
                    <g id="Group" mask="url(#mask-2)" stroke="#E73D57" stroke-width="30">
                        <g transform="translate(136.000000, 163.000000)">
                            <path d="M46.5,44.5 L323.004069,321.004069" id="Line" stroke-linecap="round"></path>
                            <path d="M0.5,89.5 L85.5529247,174.552925" id="Line-Copy" stroke-linecap="round"></path>
                            <path d="M92.5,0.5 L177.552925,85.5529247" id="Line-Copy-2" stroke-linecap="round"></path>
                            <path d="M85.0742187,173 C85.0742187,173 92.4260271,181.0284 103.964844,185.349609 C115.50366,189.670819 120.806063,188 128,188 C146,188 160,181 169,173 C178,165 186,153 191,132 C193.077862,123.272981 189.144695,106.392308 185.742188,97.90625 C182.33968,89.4201921 174.728164,82.8090578 165.962891,73.8691406" id="Path-2-Copy"></path>
                        </g>
                    </g>
                </g>
            </g>
            <path d="M1102.96,326.32 C1102.96,311.65326 1105.74664,297.573401 1111.32,284.08 C1116.89336,270.586599 1124.51995,258.706718 1134.2,248.44 C1143.88005,238.173282 1155.31993,230.106696 1168.52,224.24 C1181.72007,218.373304 1195.94659,215.44 1211.2,215.44 C1215.30669,215.44 1218.67999,216.906652 1221.32,219.84 C1223.96001,222.773348 1225.28,225.999982 1225.28,229.52 C1225.28,238.906714 1220.58671,243.6 1211.2,243.6 C1187.73322,243.6 1168.52007,251.519921 1153.56,267.36 C1138.59993,283.200079 1131.12,302.853216 1131.12,326.32 L1131.12,349.2 L1209.44,349.2 C1218.82671,349.2 1223.52,353.893286 1223.52,363.28 C1223.52,366.800018 1222.20001,370.026652 1219.56,372.96 C1216.91999,375.893348 1213.54669,377.36 1209.44,377.36 L1131.12,377.36 L1131.12,761.92 C1131.12,771.306714 1126.42671,776 1117.04,776 C1107.65329,776 1102.96,771.306714 1102.96,761.92 L1102.96,377.36 L1051.04,377.36 C1046.93331,377.36 1043.56001,375.893348 1040.92,372.96 C1038.27999,370.026652 1036.96,366.800018 1036.96,363.28 C1036.96,353.893286 1041.65329,349.2 1051.04,349.2 L1102.96,349.2 L1102.96,326.32 Z M1553.52,698.56 C1559.97337,692.106634 1566.71996,691.813304 1573.76,697.68 C1580.21337,704.133366 1580.5067,710.879965 1574.64,717.92 C1555.86657,734.933418 1533.72013,748.866612 1508.2,759.72 C1482.67987,770.573388 1455.84014,776 1427.68,776 C1398.34652,776 1370.77346,770.426722 1344.96,759.28 C1319.14654,748.133278 1296.5601,732.880097 1277.2,713.52 C1257.8399,694.159903 1242.58672,671.573462 1231.44,645.76 C1220.29328,619.946538 1214.72,592.37348 1214.72,563.04 C1214.72,533.70652 1220.29328,505.986797 1231.44,479.88 C1242.58672,453.773203 1257.8399,431.040097 1277.2,411.68 C1296.5601,392.319903 1319.14654,377.066722 1344.96,365.92 C1370.77346,354.773278 1398.34652,349.2 1427.68,349.2 C1456.42681,349.2 1483.70654,354.773278 1509.52,365.92 C1535.33346,377.066722 1557.9199,392.173238 1577.28,411.24 C1596.6401,430.306762 1612.03994,452.746538 1623.48,478.56 C1634.92006,504.373462 1640.93333,531.65319 1641.52,560.4 L1641.52,563.04 C1640.34666,571.840044 1635.65337,576.24 1627.44,576.24 L1242.88,576.24 C1244.64001,600.293454 1250.65328,622.733229 1260.92,643.56 C1271.18672,664.386771 1284.67992,682.42659 1301.4,697.68 C1318.12008,712.93341 1337.33322,725.106621 1359.04,734.2 C1380.74678,743.293379 1403.62655,747.84 1427.68,747.84 C1452.32012,747.84 1475.19989,743.440044 1496.32,734.64 C1517.44011,725.839956 1536.50658,713.81341 1553.52,698.56 Z M1427.68,377.36 C1403.62655,377.36 1380.74678,381.906621 1359.04,391 C1337.33322,400.093379 1318.26675,412.26659 1301.84,427.52 C1285.41325,442.77341 1271.92005,460.813229 1261.36,481.64 C1250.79995,502.466771 1244.64001,524.613216 1242.88,548.08 L1612.48,548.08 C1610.71999,524.613216 1604.56005,502.466771 1594,481.64 C1583.43995,460.813229 1569.80008,442.77341 1553.08,427.52 C1536.35992,412.26659 1517.29344,400.093379 1495.88,391 C1474.46656,381.906621 1451.73345,377.36 1427.68,377.36 Z M2008.48,698.56 C2014.93337,692.106634 2021.67996,691.813304 2028.72,697.68 C2035.17337,704.133366 2035.4667,710.879965 2029.6,717.92 C2010.82657,734.933418 1988.68013,748.866612 1963.16,759.72 C1937.63987,770.573388 1910.80014,776 1882.64,776 C1853.30652,776 1825.73346,770.426722 1799.92,759.28 C1774.10654,748.133278 1751.5201,732.880097 1732.16,713.52 C1712.7999,694.159903 1697.54672,671.573462 1686.4,645.76 C1675.25328,619.946538 1669.68,592.37348 1669.68,563.04 C1669.68,533.70652 1675.25328,505.986797 1686.4,479.88 C1697.54672,453.773203 1712.7999,431.040097 1732.16,411.68 C1751.5201,392.319903 1774.10654,377.066722 1799.92,365.92 C1825.73346,354.773278 1853.30652,349.2 1882.64,349.2 C1911.38681,349.2 1938.66654,354.773278 1964.48,365.92 C1990.29346,377.066722 2012.8799,392.173238 2032.24,411.24 C2051.6001,430.306762 2066.99994,452.746538 2078.44,478.56 C2089.88006,504.373462 2095.89333,531.65319 2096.48,560.4 L2096.48,563.04 C2095.30666,571.840044 2090.61337,576.24 2082.4,576.24 L1697.84,576.24 C1699.60001,600.293454 1705.61328,622.733229 1715.88,643.56 C1726.14672,664.386771 1739.63992,682.42659 1756.36,697.68 C1773.08008,712.93341 1792.29322,725.106621 1814,734.2 C1835.70678,743.293379 1858.58655,747.84 1882.64,747.84 C1907.28012,747.84 1930.15989,743.440044 1951.28,734.64 C1972.40011,725.839956 1991.46658,713.81341 2008.48,698.56 Z M1882.64,377.36 C1858.58655,377.36 1835.70678,381.906621 1814,391 C1792.29322,400.093379 1773.22675,412.26659 1756.8,427.52 C1740.37325,442.77341 1726.88005,460.813229 1716.32,481.64 C1705.75995,502.466771 1699.60001,524.613216 1697.84,548.08 L2067.44,548.08 C2065.67999,524.613216 2059.52005,502.466771 2048.96,481.64 C2038.39995,460.813229 2024.76008,442.77341 2008.04,427.52 C1991.31992,412.26659 1972.25344,400.093379 1950.84,391 C1929.42656,381.906621 1906.69345,377.36 1882.64,377.36 Z M2549.68,761.92 C2549.68,771.306714 2544.98671,776 2535.6,776 C2526.21329,776 2521.52,771.306714 2521.52,761.92 L2521.52,668.64 C2503.33324,700.906828 2477.96016,726.866568 2445.4,746.52 C2412.83984,766.173432 2376.61353,776 2336.72,776 C2307.38652,776 2279.81346,770.426722 2254,759.28 C2228.18654,748.133278 2205.6001,732.880097 2186.24,713.52 C2166.8799,694.159903 2151.48006,671.426797 2140.04,645.32 C2128.59994,619.213203 2122.88,591.49348 2122.88,562.16 C2122.88,532.82652 2128.45328,505.253462 2139.6,479.44 C2150.74672,453.626538 2165.9999,431.040097 2185.36,411.68 C2204.7201,392.319903 2227.4532,377.066722 2253.56,365.92 C2279.6668,354.773278 2307.38652,349.2 2336.72,349.2 C2376.61353,349.2 2412.69317,359.613229 2444.96,380.44 C2477.22683,401.266771 2502.74657,427.813172 2521.52,460.08 L2521.52,229.52 C2521.52,220.133286 2526.21329,215.44 2535.6,215.44 C2544.98671,215.44 2549.68,220.133286 2549.68,229.52 L2549.68,761.92 Z M2521.52,562.16 C2521.52,536.933207 2516.68005,513.02678 2507,490.44 C2497.31995,467.85322 2484.12008,448.200084 2467.4,431.48 C2450.67992,414.759916 2431.02678,401.560048 2408.44,391.88 C2385.85322,382.199952 2361.94679,377.36 2336.72,377.36 C2311.49321,377.36 2287.58678,382.199952 2265,391.88 C2242.41322,401.560048 2222.76008,414.759916 2206.04,431.48 C2189.31992,448.200084 2175.97338,467.85322 2166,490.44 C2156.02662,513.02678 2151.04,536.933207 2151.04,562.16 C2151.04,587.386793 2156.02662,611.29322 2166,633.88 C2175.97338,656.46678 2189.31992,676.119916 2206.04,692.84 C2222.76008,709.560084 2242.41322,722.906617 2265,732.88 C2287.58678,742.853383 2311.49321,747.84 2336.72,747.84 C2361.36012,747.84 2384.67989,743.146714 2406.68,733.76 C2428.68011,724.373286 2448.03992,711.466749 2464.76,695.04 C2481.48008,678.613251 2494.82662,659.69344 2504.8,638.28 C2514.77338,616.86656 2520.34666,593.840123 2521.52,569.2 L2521.52,562.16 Z M3130.48,761.92 C3130.48,766.026687 3129.01335,769.399987 3126.08,772.04 C3123.14665,774.680013 3119.92002,776 3116.4,776 C3107.01329,776 3102.32,771.306714 3102.32,761.92 L3102.32,503.2 C3102.32,485.599912 3100.12002,469.17341 3095.72,453.92 C3091.31998,438.66659 3084.86671,425.320057 3076.36,413.88 C3067.85329,402.439943 3057.14673,393.3467 3044.24,386.6 C3031.33327,379.8533 3016.37342,376.48 2999.36,376.48 C2981.75991,376.48 2965.92007,379.999965 2951.84,387.04 C2937.75993,394.080035 2925.44005,403.466608 2914.88,415.2 C2904.31995,426.933392 2896.1067,440.42659 2890.24,455.68 C2884.3733,470.93341 2881.14667,486.773251 2880.56,503.2 L2880.56,763.68 C2879.38666,771.893374 2874.69337,776 2866.48,776 C2857.09329,776 2852.4,771.306714 2852.4,761.92 L2852.4,503.2 C2852.4,485.599912 2850.20002,469.17341 2845.8,453.92 C2841.39998,438.66659 2834.80004,425.320057 2826,413.88 C2817.19996,402.439943 2806.34673,393.493366 2793.44,387.04 C2780.53327,380.586634 2765.57342,377.36 2748.56,377.36 C2730.95991,377.36 2715.12007,380.586634 2701.04,387.04 C2686.95993,393.493366 2674.78672,402.293278 2664.52,413.44 C2654.25328,424.586722 2646.1867,437.49326 2640.32,452.16 C2634.4533,466.82674 2631.22667,482.373251 2630.64,498.8 L2630.64,761.92 C2630.64,771.306714 2625.94671,776 2616.56,776 C2613.03998,776 2609.81335,774.680013 2606.88,772.04 C2603.94665,769.399987 2602.48,766.026687 2602.48,761.92 L2602.48,363.28 C2602.48,359.173313 2603.94665,355.800013 2606.88,353.16 C2609.81335,350.519987 2613.03998,349.2 2616.56,349.2 C2625.94671,349.2 2630.64,353.893286 2630.64,363.28 L2630.64,416.96 C2648.82676,390.559868 2667.89323,372.666714 2687.84,363.28 C2707.78677,353.893286 2728.02656,349.2 2748.56,349.2 C2778.48015,349.2 2804.14656,357.119921 2825.56,372.96 C2846.97344,388.800079 2861.78663,409.333207 2870,434.56 C2879.97338,408.746538 2896.98655,388.066744 2921.04,372.52 C2945.09345,356.973256 2971.19986,349.2 2999.36,349.2 C3020.48011,349.2 3039.25325,353.306626 3055.68,361.52 C3072.10675,369.733374 3085.74661,380.733264 3096.6,394.52 C3107.45339,408.306736 3115.8133,424.586573 3121.68,443.36 C3127.5467,462.133427 3130.48,482.079894 3130.48,503.2 L3130.48,761.92 Z M3511.52,698.56 C3517.97337,692.106634 3524.71996,691.813304 3531.76,697.68 C3538.21337,704.133366 3538.5067,710.879965 3532.64,717.92 C3513.86657,734.933418 3491.72013,748.866612 3466.2,759.72 C3440.67987,770.573388 3413.84014,776 3385.68,776 C3356.34652,776 3328.77346,770.426722 3302.96,759.28 C3277.14654,748.133278 3254.5601,732.880097 3235.2,713.52 C3215.8399,694.159903 3200.58672,671.573462 3189.44,645.76 C3178.29328,619.946538 3172.72,592.37348 3172.72,563.04 C3172.72,533.70652 3178.29328,505.986797 3189.44,479.88 C3200.58672,453.773203 3215.8399,431.040097 3235.2,411.68 C3254.5601,392.319903 3277.14654,377.066722 3302.96,365.92 C3328.77346,354.773278 3356.34652,349.2 3385.68,349.2 C3414.42681,349.2 3441.70654,354.773278 3467.52,365.92 C3493.33346,377.066722 3515.9199,392.173238 3535.28,411.24 C3554.6401,430.306762 3570.03994,452.746538 3581.48,478.56 C3592.92006,504.373462 3598.93333,531.65319 3599.52,560.4 L3599.52,563.04 C3598.34666,571.840044 3593.65337,576.24 3585.44,576.24 L3200.88,576.24 C3202.64001,600.293454 3208.65328,622.733229 3218.92,643.56 C3229.18672,664.386771 3242.67992,682.42659 3259.4,697.68 C3276.12008,712.93341 3295.33322,725.106621 3317.04,734.2 C3338.74678,743.293379 3361.62655,747.84 3385.68,747.84 C3410.32012,747.84 3433.19989,743.440044 3454.32,734.64 C3475.44011,725.839956 3494.50658,713.81341 3511.52,698.56 Z M3385.68,377.36 C3361.62655,377.36 3338.74678,381.906621 3317.04,391 C3295.33322,400.093379 3276.26675,412.26659 3259.84,427.52 C3243.41325,442.77341 3229.92005,460.813229 3219.36,481.64 C3208.79995,502.466771 3202.64001,524.613216 3200.88,548.08 L3570.48,548.08 C3568.71999,524.613216 3562.56005,502.466771 3552,481.64 C3541.43995,460.813229 3527.80008,442.77341 3511.08,427.52 C3494.35992,412.26659 3475.29344,400.093379 3453.88,391 C3432.46656,381.906621 3409.73345,377.36 3385.68,377.36 Z M3966.48,698.56 C3972.93337,692.106634 3979.67996,691.813304 3986.72,697.68 C3993.17337,704.133366 3993.4667,710.879965 3987.6,717.92 C3968.82657,734.933418 3946.68013,748.866612 3921.16,759.72 C3895.63987,770.573388 3868.80014,776 3840.64,776 C3811.30652,776 3783.73346,770.426722 3757.92,759.28 C3732.10654,748.133278 3709.5201,732.880097 3690.16,713.52 C3670.7999,694.159903 3655.54672,671.573462 3644.4,645.76 C3633.25328,619.946538 3627.68,592.37348 3627.68,563.04 C3627.68,533.70652 3633.25328,505.986797 3644.4,479.88 C3655.54672,453.773203 3670.7999,431.040097 3690.16,411.68 C3709.5201,392.319903 3732.10654,377.066722 3757.92,365.92 C3783.73346,354.773278 3811.30652,349.2 3840.64,349.2 C3869.38681,349.2 3896.66654,354.773278 3922.48,365.92 C3948.29346,377.066722 3970.8799,392.173238 3990.24,411.24 C4009.6001,430.306762 4024.99994,452.746538 4036.44,478.56 C4047.88006,504.373462 4053.89333,531.65319 4054.48,560.4 L4054.48,563.04 C4053.30666,571.840044 4048.61337,576.24 4040.4,576.24 L3655.84,576.24 C3657.60001,600.293454 3663.61328,622.733229 3673.88,643.56 C3684.14672,664.386771 3697.63992,682.42659 3714.36,697.68 C3731.08008,712.93341 3750.29322,725.106621 3772,734.2 C3793.70678,743.293379 3816.58655,747.84 3840.64,747.84 C3865.28012,747.84 3888.15989,743.440044 3909.28,734.64 C3930.40011,725.839956 3949.46658,713.81341 3966.48,698.56 Z M3840.64,377.36 C3816.58655,377.36 3793.70678,381.906621 3772,391 C3750.29322,400.093379 3731.22675,412.26659 3714.8,427.52 C3698.37325,442.77341 3684.88005,460.813229 3674.32,481.64 C3663.75995,502.466771 3657.60001,524.613216 3655.84,548.08 L4025.44,548.08 C4023.67999,524.613216 4017.52005,502.466771 4006.96,481.64 C3996.39995,460.813229 3982.76008,442.77341 3966.04,427.52 C3949.31992,412.26659 3930.25344,400.093379 3908.84,391 C3887.42656,381.906621 3864.69345,377.36 3840.64,377.36 Z" id="feedmee" fill="#FFFFFF"></path>
            <path d="M4313.548,544.32 C4314.89201,547.200014 4315.564,550.367983 4315.564,553.824 C4315.564,558.240022 4314.36401,562.223982 4311.964,565.776 C4309.56399,569.328018 4306.15602,572.06399 4301.74,573.984 C4298.85999,575.328007 4295.59602,576 4291.948,576 C4287.53198,576 4283.45202,574.848012 4279.708,572.544 C4275.96398,570.239988 4273.22801,566.880022 4271.5,562.464 L4258.54,531.36 L4211.02,531.36 L4198.06,562.464 C4196.13999,566.880022 4193.40402,570.239988 4189.852,572.544 C4186.29998,574.848012 4182.31602,576 4177.9,576 C4174.82798,576 4171.46802,575.232008 4167.82,573.696 C4163.40398,571.77599 4159.99601,569.040018 4157.596,565.488 C4155.19599,561.935982 4153.996,557.952022 4153.996,553.536 C4153.996,550.271984 4154.66799,547.200014 4156.012,544.32 L4213.324,405.504 C4215.05201,401.279979 4217.97998,398.016012 4222.108,395.712 C4226.23602,393.407988 4230.50798,392.160001 4234.924,391.968 C4239.72402,391.968 4243.99598,392.97599 4247.74,394.992 C4251.48402,397.00801 4254.41199,400.415976 4256.524,405.216 L4313.548,544.32 Z M4227.436,492.192 L4242.7,492.192 L4234.924,470.88 L4227.436,492.192 Z M4382.092,516.672 L4382.092,553.536 C4382.092,560.064033 4379.88402,565.439979 4375.468,569.664 C4371.05198,573.888021 4365.48403,576 4358.764,576 C4352.23597,576 4346.86002,573.888021 4342.636,569.664 C4338.41198,565.439979 4336.3,560.064033 4336.3,553.536 L4336.3,414.432 C4336.3,407.903967 4338.50798,402.528021 4342.924,398.304 C4347.34002,394.079979 4352.90797,391.968 4359.628,391.968 L4392.172,391.968 C4399.08403,391.968 4405.94797,393.599984 4412.764,396.864 C4419.58003,400.128016 4425.72397,404.591972 4431.196,410.256 C4436.66803,415.920028 4441.13198,422.495963 4444.588,429.984 C4448.04402,437.472037 4449.772,445.439958 4449.772,453.888 C4449.772,462.912045 4448.04402,471.263962 4444.588,478.944 C4441.13198,486.624038 4436.66803,493.247972 4431.196,498.816 C4425.72397,504.384028 4419.58003,508.751984 4412.764,511.92 C4405.94797,515.088016 4399.08403,516.672 4392.172,516.672 L4382.092,516.672 Z M4382.092,437.76 L4382.092,470.88 L4392.172,470.88 C4394.28401,470.687999 4396.20399,470.016006 4397.932,468.864 C4399.46801,467.903995 4400.85999,466.272012 4402.108,463.968 C4403.35601,461.663988 4403.98,458.304022 4403.98,453.888 C4403.98,449.85598 4403.35601,446.736011 4402.108,444.528 C4400.85999,442.319989 4399.46801,440.736005 4397.932,439.776 C4396.20399,438.623994 4394.28401,437.952001 4392.172,437.76 L4382.092,437.76 Z M4508.812,516.672 L4508.812,553.536 C4508.812,560.064033 4506.60402,565.439979 4502.188,569.664 C4497.77198,573.888021 4492.20403,576 4485.484,576 C4478.95597,576 4473.58002,573.888021 4469.356,569.664 C4465.13198,565.439979 4463.02,560.064033 4463.02,553.536 L4463.02,414.432 C4463.02,407.903967 4465.22798,402.528021 4469.644,398.304 C4474.06002,394.079979 4479.62797,391.968 4486.348,391.968 L4518.892,391.968 C4525.80403,391.968 4532.66797,393.599984 4539.484,396.864 C4546.30003,400.128016 4552.44397,404.591972 4557.916,410.256 C4563.38803,415.920028 4567.85198,422.495963 4571.308,429.984 C4574.76402,437.472037 4576.492,445.439958 4576.492,453.888 C4576.492,462.912045 4574.76402,471.263962 4571.308,478.944 C4567.85198,486.624038 4563.38803,493.247972 4557.916,498.816 C4552.44397,504.384028 4546.30003,508.751984 4539.484,511.92 C4532.66797,515.088016 4525.80403,516.672 4518.892,516.672 L4508.812,516.672 Z M4508.812,437.76 L4508.812,470.88 L4518.892,470.88 C4521.00401,470.687999 4522.92399,470.016006 4524.652,468.864 C4526.18801,467.903995 4527.57999,466.272012 4528.828,463.968 C4530.07601,461.663988 4530.7,458.304022 4530.7,453.888 C4530.7,449.85598 4530.07601,446.736011 4528.828,444.528 C4527.57999,442.319989 4526.18801,440.736005 4524.652,439.776 C4522.92399,438.623994 4521.00401,437.952001 4518.892,437.76 L4508.812,437.76 Z" id="APP" fill="#FFFFFF"></path>
        </g>
    </g>
</svg>